<svg xmlns="http://www.w3.org/2000/svg" width="815" height="510"><g fill="none" fill-rule="evenodd" transform="translate(0 1)"><ellipse cx="445.8" cy="311.6" fill="#E9F2FB" fill-rule="nonzero" rx="335.6" ry="196.9"/><g fill-rule="nonzero"><path fill="#EE706D" d="m724.7 279.8-35.6 40.8-34.6-.2v-1.2l36.3-39.8h30.9c1.1 0 2.1.1 3 .4ZM649.7 279.4l-16.6 17.7v-17.7z"/><path fill="#FED280" d="M635.7 172.5v30.2c0 3.1-2.5 5.7-5.7 5.7H406.7c-3.1 0-5.7-2.5-5.7-5.7v-30.2c0-3.1 2.5-5.7 5.7-5.7H630c3.2 0 5.7 2.6 5.7 5.7Z"/><path fill="#99C592" d="M633.1 320.2v50.5c0 7.5-5.4 13.9-12.5 15.3h-15.9c1.2-2.2 2.2-4.1 2.9-5.7 1.9-3.9 2.8-8.1 2.9-12.4.1-8.5.2-26.9.3-47.9h1.2l21.1.2ZM633.1 224.1v55.3h-22c.2-24.5.5-45.9.8-52.2.8-17.1-3.1-18.8-3.1-18.8h8.6c8.6 0 15.7 7.1 15.7 15.7Z"/><path fill="#EE706D" d="M610.7 320c.1-12.9.2-26.8.4-39.8l.8-.8h21.2v17.7l-21.2 22.7v.3l-1.2-.1Z"/><path fill="#EE706D" d="m572.8 319.7 38.3-39.6c-.1 13-.2 26.9-.4 39.8l-37.9-.2ZM566.6 279.4l-38.8 39.4v.6l-36.7-.2 40.9-39.8z"/><path fill="#B0D7A1" d="m572.8 319.7 37.9.3c-.1 20.9-.2 39.4-.3 47.9 0 4.3-1 8.5-2.9 12.4-.7 1.6-1.7 3.5-2.9 5.7h-191c-7.1-1.5-12.5-7.8-12.5-15.3V318.6l10.1.1 34.3.2 45.7.3 36.7.3 44.9.2Z"/><path fill="#EE706D" d="m488.3 279.4-42.9 39.4-34.3-.2 42.3-39.2z"/><path fill="#B0D7A1" d="M453.4 279.4H401.1v-55.3c0-8.6 7.1-15.7 15.7-15.7h192s3.9 1.7 3.1 18.8c-.3 6.3-.6 27.6-.8 52.2H453.4Zm-40-21.5h5.2c.8 0 1.5-.7 1.5-1.5v-30.1c0-.8-.7-1.4-1.5-1.4h-5.2c-.8 0-1.4.6-1.4 1.4v30.1c0 .8.6 1.5 1.4 1.5Zm2.9 13.3c2.4 0 4.3-1.9 4.3-4.3s-1.9-4.3-4.3-4.3-4.3 1.9-4.3 4.3c0 2.3 1.9 4.3 4.3 4.3Z"/><path fill="#EE706D" d="M401.1 279.4v4.2l-33.7 34.7-36.9-.3v-.3l36.9-38.3z"/><path fill="#DFDFDF" d="M386.7 77.7c12.3 17.3-4.5 10.7-4.5 10.7l-24.5-12.5 15.1-13.3 13.9 15.1Z"/><path fill="#DFDFDF" d="m318.8 8 54.1 54.7L357.8 76l-5.1 4.5c-4 3.5-10.1 3.4-14-.3l-18.4-17.5-15.9-15.5-20.2-19.8.6-.6 19.5-19c4-3.9 10.5-3.9 14.5.2Z"/><path fill="#F0F3F8" d="M321.7 359.7s19.9 3.2 17.6 26.3h-150s-2.8-22.2 21.5-26.3h110.9Z"/><path fill="#EE706D" d="m324 279.4-21.2 20.7v-20.7z"/><path fill="#5C5C5C" d="M310.6 80.2c-1.8 2.7-5.4 3.3-7.9 1.4V64.2l1.5-1.6 5.9 5.7c.9.8 1.5 1.8 1.9 2.9 1.1 2.5.8 5.5-.7 8l-.7 1Z"/><path fill="#DAE3E9" d="M302.8 317.8v41.9h-18v-42z"/><path fill="#EE706D" d="M302.8 279.4v20.7l-18 17.6V283l3.6-3.6z"/><path fill="#DAE3E9" d="M302.8 160.7v118.7h-18V160.7zM284.8 127h18v33.7h-18z"/><path fill="#5C5C5C" d="m310.2 68.3-5.9-5.7-6.4-6.2c-.7-.6-1.4-1.1-2.2-1.5l.2-.5 8.5-7.3 15.9 15.5L313 71l-.8.2c-.5-1.1-1.2-2-2-2.9Z"/><path fill="#5C5C5C" d="m297.9 56.5 6.4 6.2-1.5 1.6h-16.6c-1.3-2.8-.5-6.3 2.2-8.3l.2-.2c2.1-1.5 4.8-1.7 7.1-.8.8.3 1.5.8 2.2 1.5ZM287.5 66.2c-.6-.6-1-1.2-1.3-1.9h16.6v17.4c-.2-.1-.4-.3-.6-.5l-14.7-15Z"/><path fill="#DAE3E9" d="m287.5 66.2 14.7 14.9c.2.2.4.4.6.5V127h-18V64.2h1.4c.3.7.7 1.4 1.3 2Z"/><path fill="#E7F2FA" d="M284.8 317.7v42h-34.7v-42.3z"/><path fill="#EE706D" d="M284.8 283v34.7l-34.7-.3z"/><path fill="#E7F2FA" d="M284.8 160.7v118.6h-34.6v-43.6c0-5.7-4.7-10.4-10.4-10.4h-14v-64.6h59Z"/><path fill="#FFF" d="M225.7 127h59.1v33.7h-59.1z"/><path fill="#E7F2FA" d="M284.8 64.2V127h-59.1V81.4c0-9.5 7.7-17.1 17.1-17.1h42v-.1Z"/><path fill="#E2E1E3" d="M250.1 317.4v42.2h-15.2V225.3h4.8c5.7 0 10.4 4.7 10.4 10.4v81.7Z"/><path fill="#FDFDFD" d="M234.9 225.3v134.3h-24.2V235.7c0-5.7 4.7-10.4 10.4-10.4H234.9Z"/></g><g fill="#96CEF7" fill-rule="nonzero" transform="translate(666 177)"><path d="M20.2 9.6V5.9c0-3 2.4-5.4 5.4-5.4h90.6c3 0 5.4 2.4 5.4 5.4v3.8c0 3-2.4 5.4-5.4 5.4H76.3c-3 0-5.4 2.4-5.4 5.4v4c0 3 2.4 5.4 5.4 5.4h7.6c3 0 5.4 2.4 5.4 5.3l.1 6.4c0 3-2.4 5.5-5.4 5.5H5.9c-3 0-5.4-2.4-5.4-5.4v-6.2c0-3 2.4-5.4 5.4-5.4l35.4-.2c2.9 0 5.3-2.4 5.4-5.3l.1-4.3c.1-3-2.4-5.5-5.5-5.5l-15.7.2c-2.9.1-5.4-2.4-5.4-5.4Z"/><circle cx="140.9" cy="8.5" r="8"/></g><g fill="#96CEF7" fill-rule="nonzero" transform="translate(0 278)"><path d="M161.6 11.8V7.2c0-3.7-3-6.8-6.8-6.8H41.7c-3.7 0-6.8 3-6.8 6.8v4.7c0 3.7 3 6.7 6.7 6.7h49.9c3.7 0 6.8 3 6.8 6.8v5c0 3.7-3 6.8-6.8 6.8H82c-3.7 0-6.7 3-6.8 6.7l-.1 8c-.1 3.8 3 6.9 6.8 6.9h97.6c3.7 0 6.8-3 6.8-6.8v-7.7c0-3.7-3-6.7-6.7-6.8l-44.3-.3c-3.7 0-6.7-3-6.7-6.6l-.1-5.3c-.1-3.8 3-6.9 6.8-6.9l19.6.2c3.6 0 6.7-3 6.7-6.8Z"/><circle cx="10.8" cy="10.4" r="9.9"/></g><path stroke="#FFF" d="M429.2 201.7h187M414.9 201.7h9.7M192.4 378.1s-.7-13.2 16.4-19.2M337.2 70.6s6.7 9.2 13.8 3.5M353.5 72.1l14.8-13.5"/><g stroke="#000" stroke-width="2"><path d="M210.7 355.7v-124c0-5.7 4.7-10.4 10.4-10.4H239.7c5.7 0 10.4 4.7 10.4 10.4v123.9h-39.4v.1ZM288.4 275.4l-35.9 38.3 32.2.2 18 .1 27.7.2 36.9.2 33.7.2 10.1.1 34.3.2 45.7.3 36.7.2 45 .3 39.1.3 21.2.1 21.4.1 34.5.2 32.6.2c5.8.1 10.4-4.6 10.4-10.4v-20.7c0-4.7-3.1-8.6-7.3-9.9-1-.3-2-.5-3-.5H250.1M324 275.4l-39.2 38.3M367.4 275.4l-36.9 38.3M405.2 275.4l-37.8 38.9M411.1 314.6l42.3-39.2M445.4 314.8l42.9-39.4M491.1 315.2l40.9-39.8M566.6 275.4l-38.8 39.4M572.8 315.8l39.1-40.4M649.7 275.4l-37.8 40.4M690.8 275.4l-36.3 39.8"/><path d="m725.1 275.4-.4.4-35.7 40.8-.2.3M706.7 382h79.8M701.4 382h2.3M667.4 382h28.2M389.5 382h272.8M356.8 382h26.8M144 382h207.7M133.8 382h7.4M107 382h20.4M189.2 382s-2.8-22.2 21.5-26.3M250.1 355.7h71.5s19.9 3.2 17.6 26.3M302.8 313.7v42M302.8 78.7v196.7M225.7 221.3V77.4c0-9.5 7.7-17.1 17.1-17.1h42.8M284.8 123h18M225.7 123h59.1M284.8 156.7h18M225.7 156.7h59.1M286.1 60c.3.8.8 1.5 1.4 2.2l14.7 14.9c.3.3.6.5.9.7 2.5 1.7 5.9 1 7.6-1.6l.7-1.1c1.6-2.4 1.8-5.4.7-8-.4-1.1-1.1-2-1.9-2.9l-12.3-11.9c-.7-.6-1.4-1.1-2.2-1.5-2.3-.9-5-.7-7.1.8l-.2.2c-2.7 2-3.5 5.4-2.3 8.2Z"/><path d="m295.9 50.5 8.5-7.3 15.8 15.4-7.3 8.4M283.5 22.8l.6.5 20.3 19.9"/><path d="m320.2 58.6 18.4 17.5c3.9 3.7 9.9 3.8 14 .3l5.1-4.5 15.1-13.3-54-54.6c-4-4-10.5-4.1-14.6-.1L284 23.4l-.5.5M357.8 71.9l24.5 12.5s16.8 6.6 4.5-10.7L373 58.6M633.1 315.7v50.9c0 7.5-5.4 13.9-12.5 15.3-1 .2-2.1.3-3.2.3H416.8c-1.1 0-2.1-.1-3.2-.3-7.1-1.5-12.5-7.8-12.5-15.3v-23M617.4 204.4c8.6 0 15.7 7.1 15.7 15.7v55.3M401.1 275.4v-55.3c0-8.6 7.1-15.7 15.7-15.7M401.1 329.8v-15.5M579.7 162.8H620c8.6 0 15.7 7.1 15.7 15.7v10.2c0 8.6-7.1 15.7-15.7 15.7H416.8c-8.6 0-15.7-7.1-15.7-15.7v-10.2c0-8.6 7.1-15.7 15.7-15.7H439M449.6 162.8h117M438.9 162.8h10.7"/><path d="M418.6 253.9h-5.2c-.8 0-1.4-.7-1.4-1.5v-30.1c0-.8.6-1.4 1.4-1.4h5.2c.8 0 1.5.6 1.5 1.4v30.1c0 .8-.7 1.5-1.5 1.5ZM416.3 267.2c-2.4 0-4.3-1.9-4.3-4.3s1.9-4.3 4.3-4.3 4.3 1.9 4.3 4.3c.1 2.3-1.9 4.3-4.3 4.3Z"/></g></g></svg>