<svg xmlns="http://www.w3.org/2000/svg" width="815" height="510"><g fill="none" fill-rule="evenodd" transform="translate(0 1)"><ellipse cx="445.8" cy="311.6" fill="#e9f2fb" fill-rule="nonzero" rx="335.6" ry="196.9"/><g fill-rule="nonzero"><path fill="#ee706d" d="m724.7 279.8-35.6 40.8-34.6-.2v-1.2l36.3-39.8h30.9c1.1 0 2.1.1 3 .4m-75-.4-16.6 17.7v-17.7z"/><path fill="#fed280" d="M635.7 172.5v30.2c0 3.1-2.5 5.7-5.7 5.7H406.7c-3.1 0-5.7-2.5-5.7-5.7v-30.2c0-3.1 2.5-5.7 5.7-5.7H630c3.2 0 5.7 2.6 5.7 5.7"/><path fill="#99c592" d="M633.1 320.2v50.5c0 7.5-5.4 13.9-12.5 15.3h-15.9c1.2-2.2 2.2-4.1 2.9-5.7 1.9-3.9 2.8-8.1 2.9-12.4.1-8.5.2-26.9.3-47.9h1.2zm0-96.1v55.3h-22c.2-24.5.5-45.9.8-52.2.8-17.1-3.1-18.8-3.1-18.8h8.6c8.6 0 15.7 7.1 15.7 15.7"/><path fill="#ee706d" d="M610.7 320c.1-12.9.2-26.8.4-39.8l.8-.8h21.2v17.7l-21.2 22.7v.3z"/><path fill="#ee706d" d="m572.8 319.7 38.3-39.6c-.1 13-.2 26.9-.4 39.8zm-6.2-40.3-38.8 39.4v.6l-36.7-.2 40.9-39.8z"/><path fill="#b0d7a1" d="m572.8 319.7 37.9.3c-.1 20.9-.2 39.4-.3 47.9 0 4.3-1 8.5-2.9 12.4-.7 1.6-1.7 3.5-2.9 5.7h-191c-7.1-1.5-12.5-7.8-12.5-15.3v-52.1l10.1.1 34.3.2 45.7.3 36.7.3z"/><path fill="#ee706d" d="m488.3 279.4-42.9 39.4-34.3-.2 42.3-39.2z"/><path fill="#b0d7a1" d="M453.4 279.4h-52.3v-55.3c0-8.6 7.1-15.7 15.7-15.7h192s3.9 1.7 3.1 18.8c-.3 6.3-.6 27.6-.8 52.2zm-40-21.5h5.2c.8 0 1.5-.7 1.5-1.5v-30.1c0-.8-.7-1.4-1.5-1.4h-5.2c-.8 0-1.4.6-1.4 1.4v30.1c0 .8.6 1.5 1.4 1.5m2.9 13.3c2.4 0 4.3-1.9 4.3-4.3s-1.9-4.3-4.3-4.3-4.3 1.9-4.3 4.3c0 2.3 1.9 4.3 4.3 4.3"/><path fill="#ee706d" d="M401.1 279.4v4.2l-33.7 34.7-36.9-.3v-.3l36.9-38.3z"/><path fill="#dfdfdf" d="M386.7 77.7c12.3 17.3-4.5 10.7-4.5 10.7l-24.5-12.5 15.1-13.3z"/><path fill="#dfdfdf" d="m318.8 8 54.1 54.7L357.8 76l-5.1 4.5c-4 3.5-10.1 3.4-14-.3l-18.4-17.5-15.9-15.5-20.2-19.8.6-.6 19.5-19c4-3.9 10.5-3.9 14.5.2"/><path fill="#f0f3f8" d="M321.7 359.7s19.9 3.2 17.6 26.3h-150s-2.8-22.2 21.5-26.3z"/><path fill="#ee706d" d="m324 279.4-21.2 20.7v-20.7z"/><path fill="#5c5c5c" d="M310.6 80.2c-1.8 2.7-5.4 3.3-7.9 1.4V64.2l1.5-1.6 5.9 5.7c.9.8 1.5 1.8 1.9 2.9 1.1 2.5.8 5.5-.7 8z"/><path fill="#dae3e9" d="M302.8 317.8v41.9h-18v-42z"/><path fill="#ee706d" d="M302.8 279.4v20.7l-18 17.6V283l3.6-3.6z"/><path fill="#dae3e9" d="M302.8 160.7v118.7h-18V160.7zm-18-33.7h18v33.7h-18z"/><path fill="#5c5c5c" d="m310.2 68.3-5.9-5.7-6.4-6.2c-.7-.6-1.4-1.1-2.2-1.5l.2-.5 8.5-7.3 15.9 15.5L313 71l-.8.2c-.5-1.1-1.2-2-2-2.9"/><path fill="#5c5c5c" d="m297.9 56.5 6.4 6.2-1.5 1.6h-16.6c-1.3-2.8-.5-6.3 2.2-8.3l.2-.2c2.1-1.5 4.8-1.7 7.1-.8.8.3 1.5.8 2.2 1.5m-10.4 9.7c-.6-.6-1-1.2-1.3-1.9h16.6v17.4c-.2-.1-.4-.3-.6-.5z"/><path fill="#dae3e9" d="m287.5 66.2 14.7 14.9c.2.2.4.4.6.5V127h-18V64.2h1.4c.3.7.7 1.4 1.3 2"/><path fill="#e7f2fa" d="M284.8 317.7v42h-34.7v-42.3z"/><path fill="#ee706d" d="M284.8 283v34.7l-34.7-.3z"/><path fill="#e7f2fa" d="M284.8 160.7v118.6h-34.6v-43.6c0-5.7-4.7-10.4-10.4-10.4h-14v-64.6z"/><path fill="#fff" d="M225.7 127h59.1v33.7h-59.1z"/><path fill="#e7f2fa" d="M284.8 64.2V127h-59.1V81.4c0-9.5 7.7-17.1 17.1-17.1h42z"/><path fill="#e2e1e3" d="M250.1 317.4v42.2h-15.2V225.3h4.8c5.7 0 10.4 4.7 10.4 10.4z"/><path fill="#fdfdfd" d="M234.9 225.3v134.3h-24.2V235.7c0-5.7 4.7-10.4 10.4-10.4z"/></g><g fill="#96cef7" fill-rule="nonzero" transform="translate(666 177)"><path d="M20.2 9.6V5.9c0-3 2.4-5.4 5.4-5.4h90.6c3 0 5.4 2.4 5.4 5.4v3.8c0 3-2.4 5.4-5.4 5.4H76.3c-3 0-5.4 2.4-5.4 5.4v4c0 3 2.4 5.4 5.4 5.4h7.6c3 0 5.4 2.4 5.4 5.3l.1 6.4c0 3-2.4 5.5-5.4 5.5H5.9c-3 0-5.4-2.4-5.4-5.4v-6.2c0-3 2.4-5.4 5.4-5.4l35.4-.2c2.9 0 5.3-2.4 5.4-5.3l.1-4.3c.1-3-2.4-5.5-5.5-5.5l-15.7.2c-2.9.1-5.4-2.4-5.4-5.4"/><circle cx="140.9" cy="8.5" r="8"/></g><g fill="#96cef7" fill-rule="nonzero" transform="translate(0 278)"><path d="M161.6 11.8V7.2c0-3.7-3-6.8-6.8-6.8H41.7c-3.7 0-6.8 3-6.8 6.8v4.7c0 3.7 3 6.7 6.7 6.7h49.9c3.7 0 6.8 3 6.8 6.8v5c0 3.7-3 6.8-6.8 6.8H82c-3.7 0-6.7 3-6.8 6.7l-.1 8c-.1 3.8 3 6.9 6.8 6.9h97.6c3.7 0 6.8-3 6.8-6.8v-7.7c0-3.7-3-6.7-6.7-6.8l-44.3-.3c-3.7 0-6.7-3-6.7-6.6l-.1-5.3c-.1-3.8 3-6.9 6.8-6.9l19.6.2c3.6 0 6.7-3 6.7-6.8"/><circle cx="10.8" cy="10.4" r="9.9"/></g><path stroke="#fff" d="M429.2 201.7h187m-201.3 0h9.7M192.4 378.1s-.7-13.2 16.4-19.2M337.2 70.6s6.7 9.2 13.8 3.5m2.5-2 14.8-13.5"/><g stroke="#000" stroke-width="2"><path d="M210.7 355.7v-124c0-5.7 4.7-10.4 10.4-10.4h18.6c5.7 0 10.4 4.7 10.4 10.4v123.9h-39.4zm77.7-80.3-35.9 38.3 32.2.2 18 .1 27.7.2 36.9.2 33.7.2 10.1.1 34.3.2 45.7.3 36.7.2 45 .3 39.1.3 21.2.1 21.4.1 34.5.2 32.6.2c5.8.1 10.4-4.6 10.4-10.4v-20.7c0-4.7-3.1-8.6-7.3-9.9-1-.3-2-.5-3-.5H250.1m73.9.3-39.2 38.3m82.6-38.3-36.9 38.3m74.7-38.3-37.8 38.9m43.7.3 42.3-39.2m-8 39.4 42.9-39.4m2.8 39.8 40.9-39.8m34.6 0-38.8 39.4m45 1 39.1-40.4m37.8 0-37.8 40.4m78.9-40.4-36.3 39.8"/><path d="m725.1 275.4-.4.4-35.7 40.8-.2.3m17.9 65.1h79.8m-85.1 0h2.3m-36.3 0h28.2m-306.1 0h272.8m-305.5 0h26.8M144 382h207.7m-217.9 0h7.4m-34.2 0h20.4m61.8 0s-2.8-22.2 21.5-26.3m39.4 0h71.5s19.9 3.2 17.6 26.3m-36.4-68.3v42m0-277v196.7m-77.1-54.1V77.4c0-9.5 7.7-17.1 17.1-17.1h42.8m-.8 62.7h18m-77.1 0h59.1m0 33.7h18m-77.1 0h59.1m1.3-96.7c.3.8.8 1.5 1.4 2.2l14.7 14.9c.3.3.6.5.9.7 2.5 1.7 5.9 1 7.6-1.6l.7-1.1c1.6-2.4 1.8-5.4.7-8-.4-1.1-1.1-2-1.9-2.9l-12.3-11.9c-.7-.6-1.4-1.1-2.2-1.5-2.3-.9-5-.7-7.1.8l-.2.2c-2.7 2-3.5 5.4-2.3 8.2Z"/><path d="m295.9 50.5 8.5-7.3 15.8 15.4-7.3 8.4m-29.4-44.2.6.5 20.3 19.9"/><path d="m320.2 58.6 18.4 17.5c3.9 3.7 9.9 3.8 14 .3l5.1-4.5 15.1-13.3-54-54.6c-4-4-10.5-4.1-14.6-.1L284 23.4l-.5.5m74.3 48 24.5 12.5s16.8 6.6 4.5-10.7L373 58.6m260.1 257.1v50.9c0 7.5-5.4 13.9-12.5 15.3-1 .2-2.1.3-3.2.3H416.8c-1.1 0-2.1-.1-3.2-.3-7.1-1.5-12.5-7.8-12.5-15.3v-23m216.3-139.2c8.6 0 15.7 7.1 15.7 15.7v55.3m-232 0v-55.3c0-8.6 7.1-15.7 15.7-15.7m-15.7 125.4v-15.5m178.6-151.5H620c8.6 0 15.7 7.1 15.7 15.7v10.2c0 8.6-7.1 15.7-15.7 15.7H416.8c-8.6 0-15.7-7.1-15.7-15.7v-10.2c0-8.6 7.1-15.7 15.7-15.7H439m10.6 0h117m-127.7 0h10.7"/><path d="M418.6 253.9h-5.2c-.8 0-1.4-.7-1.4-1.5v-30.1c0-.8.6-1.4 1.4-1.4h5.2c.8 0 1.5.6 1.5 1.4v30.1c0 .8-.7 1.5-1.5 1.5Zm-2.3 13.3c-2.4 0-4.3-1.9-4.3-4.3s1.9-4.3 4.3-4.3 4.3 1.9 4.3 4.3c.1 2.3-1.9 4.3-4.3 4.3Z"/></g></g></svg>