<svg xmlns="http://www.w3.org/2000/svg" width="859" height="586"><g fill="none" fill-rule="evenodd"><ellipse cx="452" cy="344" fill="#E7F4FE" fill-rule="nonzero" rx="406.2" ry="241.1"/><g fill="#96CEF7" fill-rule="nonzero" transform="translate(646 401)"><path d="M20.7 9.5V5.7c0-3.1 2.5-5.6 5.6-5.6h92.9c3.1 0 5.6 2.5 5.6 5.6v3.9c0 3.1-2.5 5.5-5.5 5.5H78.4c-3.1 0-5.6 2.5-5.6 5.6v4.1c0 3.1 2.5 5.6 5.6 5.6h7.8c3 0 5.5 2.4 5.6 5.5l.1 6.6c0 3.1-2.5 5.6-5.6 5.6H6.2c-3.1 0-5.6-2.5-5.6-5.6v-6.4c0-3.1 2.5-5.5 5.5-5.6l36.4-.2c3 0 5.5-2.4 5.5-5.5l.1-4.4c.1-3.1-2.5-5.7-5.6-5.7l-16.1.2c-3.1.2-5.7-2.3-5.7-5.4z"/><circle cx="144.6" cy="8.4" r="8.2"/></g><g fill="#96CEF7" fill-rule="nonzero" transform="translate(0 249)"><path d="M158.3 12V7.5c0-3.7-3-6.7-6.7-6.7H40.3c-3.7 0-6.7 3-6.7 6.7v4.6c0 3.7 3 6.6 6.6 6.6h49c3.7 0 6.7 3 6.7 6.7v4.9c0 3.7-3 6.7-6.7 6.7h-9.3c-3.6 0-6.6 2.9-6.7 6.5l-.1 7.9c-.1 3.7 2.9 6.8 6.7 6.8h96c3.7 0 6.7-3 6.7-6.7v-7.6c0-3.7-3-6.6-6.6-6.7l-43.6-.3c-3.6 0-6.5-2.9-6.6-6.5l-.1-5.2c-.1-3.7 3-6.8 6.7-6.8l19.3.2c3.6.1 6.7-2.9 6.7-6.6z"/><circle cx="9.9" cy="10.6" r="9.8"/></g><g fill-rule="nonzero"><path fill="#96CEF7" d="M513.5 354.8s-2 15.1 11.1 21.8c-5.5 9.6-12.4 18.4-20.3 26.1-20.1-35.8-40.6-14.5-40.6-14.5s-12.6-26.5-31-21.9c18.2-11.9 36.8-25.3 54.9-39 4.9 27 25.9 27.5 25.9 27.5z"/><path fill="#309EED" d="M524.7 376.6c-13.1-6.7-11.2-21.8-11.2-21.8s-21-.6-25.8-27.6c16.7-12.7 33-25.8 48.3-38.5 2.6 9.6 4 19.7 3.9 30.2 0 21.1-5.5 40.7-15.2 57.7zm-20.3 26.1c-21 20.3-49.5 32.8-81 32.8-2.8 0-5.5-.1-8.2-.3 0 0-9-16.1 3.7-25.2 0 0-16.6-17.5.5-35.2 4.4-2.7 8.9-5.6 13.3-8.5 18.4-4.6 31 21.9 31 21.9s20.6-21.3 40.7 14.5z"/><path fill="#309EED" d="M536 288.8c-15.3 12.7-31.6 25.8-48.3 38.5-.1-.5-.2-1-.2-1.5-4.2-28.5 24.2-39.4 24.2-39.4s-5-20.8 19-12.8c2.1 4.8 3.9 9.9 5.3 15.2z"/><path fill="#96CEF7" d="M487.4 325.7c.1.5.2 1 .2 1.5-18.1 13.8-36.7 27.1-54.9 39-3 .7-6.1 2.3-9.4 4.9-1.5 1.2-2.8 2.4-4 3.6-25 15.5-49 27.8-69.9 34.3-24.8-20.3-41-50.7-42.5-84.9v-.1c.4-10.6 2-21 4.7-30.9 4.8 1.1 17.7 3.7 23.5-.5 7.3-5.2-.7 51.8 30.6 51.8s33.7-52.2 33.7-52.2 26.7 1.2 13.3-29.1c0 0 17.8 1.5 22.6-16.4 3.4-12.5-2.2-25.6-12.8-33.1-4.2-3-9.7-6.4-16.9-10.1 5.7-.9 11.6-1.3 17.6-1.3 48.2 0 89.6 29.3 107.3 71-24-8-19 12.8-19 12.8s-28.3 11.2-24.1 39.7zM458 319s7.6-6.6 5.8-12.8c-1.8-6.2-10.3.7-10.3.7s-.6-18.7-17-12.1c-16.4 6.7-5.5 24.2-5.5 24.2 12.8 13.8 27 0 27 0z"/><path fill="#309EED" d="M463.8 306.2c1.8 6.2-5.8 12.8-5.8 12.8s-14.3 13.8-27 0c0 0-10.9-17.5 5.5-24.2 16.4-6.7 17 12.1 17 12.1s8.5-6.9 10.3-.7z"/><path fill="#96CEF7" d="M349.6 409.1c20.9-6.5 44.9-18.8 69.9-34.3-17.1 17.7-.5 35.2-.5 35.2-12.7 9.1-3.7 25.2-3.7 25.2-24.9-1.7-47.6-11.2-65.7-26.1z"/><path fill="#309EED" d="M435.5 246.9c-4.9 17.9-22.6 16.4-22.6 16.4 13.3 30.3-13.3 29.1-13.3 29.1s-2.4 52.2-33.7 52.2c-31.3 0-23.3-57-30.6-51.8-5.9 4.2-18.8 1.6-23.5.5 6.7-25.1 20.2-47.3 38.4-64.8 15.7-12.7 34.8-21.4 55.7-24.6 7.2 3.7 12.7 7.1 16.9 10.1 10.5 7.3 16.1 20.4 12.7 32.9z"/></g><circle cx="423.4" cy="319" r="116.5"/><path stroke="#000" d="M487 419.1c-2.4 1.4-4.9 2.8-7.4 4.1"/><path stroke="#000" stroke-width="2" d="M459.6 429.9c-11.3 3.6-23.3 5.6-35.8 5.6-64.3 0-116.5-52.2-116.5-116.5s52.2-116.5 116.5-116.5S540.3 254.6 540.3 319c0 39.8-20 75-50.5 96"/><path stroke="#5C5C5C" stroke-dasharray="3.0047,3.0047" stroke-linecap="round" stroke-linejoin="round" stroke-width="2" d="M445.5 470.4c77.651 0 140.6-62.949 140.6-140.6s-62.949-140.6-140.6-140.6-140.6 62.949-140.6 140.6 62.949 140.6 140.6 140.6z"/><path stroke="#5C5C5C" stroke-dasharray="2.994,2.994" stroke-linecap="round" stroke-linejoin="round" stroke-width="2" d="M441.4 524C547.218 524 633 438.218 633 332.4s-85.782-191.6-191.6-191.6-191.6 85.782-191.6 191.6S335.582 524 441.4 524z"/><path stroke="#EF706D" stroke-dasharray="3,3" stroke-width="2" d="M303.3 324s-66.9 112.7 34.9 87.2C440 385.7 668.8 176 668.8 176"/><path stroke="#EF706D" stroke-dasharray="3,3" stroke-width="2" d="M304.8 330.5s-50.5 85.1 26.4 65.8c76.9-19.2 321-242.9 321-242.9"/><g fill-rule="nonzero"><path fill="#AFD7A3" d="M785.4 115c17.8 26.5 24.6 49.3 15.4 58.4-13.7 13.7-58.3-8.8-99.6-50.3-17.7-17.8-31.9-36.1-41.3-52.4-1-1.7-1.9-3.3-2.7-4.9-1.8-3.3-3.3-6.5-4.6-9.6-6.4-15-7.3-26.9-1.2-32.9 8.5-8.5 28.7-3.1 52.7 12 14.9 9.3 31.1 22.4 46.9 38.3 9.3 9.4 17.7 18.9 24.9 28.2 3.4 4.5 6.6 8.9 9.5 13.2zm-23 22.4c5.3-5.3-7.7-26.9-29.1-48.3-21.3-21.4-42.9-34.5-48.2-29.3-5.3 5.2 7.8 26.9 29.1 48.3s43 34.6 48.2 29.3z"/><path fill="#E7B976" d="M791.3 66.8c5.2 13.1 7.1 30.7-6 48.2-2.9-4.3-6.1-8.7-9.6-13.2C796.5 88.5 789.6 63 789.6 63c.7 1.2 1.2 2.5 1.7 3.8zm-57.9 22.4c21.3 21.4 34.4 43 29.1 48.3-5.3 5.2-26.8-7.9-48.2-29.3-21.4-21.4-34.4-43-29.1-48.3 5.3-5.3 26.8 7.8 48.2 29.3z"/><path fill="#FED37C" d="M789.6 63s6.8 25.5-13.8 38.8c-7.2-9.3-15.5-18.8-24.9-28.2-15.8-15.9-32.1-28.9-46.9-38.3 0 0 21.3-19.7 58.4-.2 3.5 1.8 6.8 4 9.9 6.4 2.3 1.8 4.5 3.8 6.5 5.9 4.4 4.6 8.1 9.8 10.8 15.6zm-33.3-19.6c.7-1.2.4-2.7-.8-3.5-1.2-.7-2.8-.4-3.5.8-.7 1.2-.4 2.8.8 3.5 1.2.7 2.8.4 3.5-.8zm-11.9-1c1.5.1 2.9-.7 3.3-2.1.3-1.1-.1-2.4-2.5-3.5-4.1-2-11.8-1.5-15-1.2-1.3.1-2.6.6-3.5 1.4-3.1 2.6 0 5.8 3.6 5.1 3.3-.8 10.8-.1 14.1.3z"/><path fill="#AFD7A3" d="M800 21.8c1.2.7-21.2 25.6-21.2 25.6-2-2.1-4.2-4.1-6.5-5.9 0 .1 26.5-20.4 27.7-19.7z"/><path fill="#FFF" d="M755.5 39.9c1.2.7 1.6 2.3.8 3.5-.7 1.2-2.3 1.6-3.5.8-1.2-.7-1.6-2.3-.8-3.5.7-1.2 2.3-1.5 3.5-.8zm-7.8.3c-.4 1.4-1.8 2.3-3.3 2.1-3.3-.4-10.8-1.1-14.1-.4-3.6.8-6.7-2.4-3.6-5.1 1-.9 2.2-1.3 3.5-1.4 3.2-.3 10.9-.8 15 1.2 2.4 1.3 2.8 2.6 2.5 3.6z"/><path fill="#D8D7D7" d="M627.9 180.6c-.2.1-.4.1-.6.2-1.1-1.9-2.2-3.7-3.3-5.6 1.2 1.8 2.6 3.6 3.9 5.4z"/></g><g stroke="#000" stroke-width="2"><path d="M657.2 65.9c-1.8-3.3-3.3-6.5-4.6-9.6m7.3 14.5c-1-1.7-1.9-3.3-2.7-4.9m-4.6-9.6c-6.4-15-7.3-26.9-1.2-32.9 8.5-8.5 28.7-3.1 52.7 12 14.9 9.3 31.1 22.4 46.9 38.3 9.3 9.4 17.7 18.9 24.9 28.2 3.5 4.5 6.7 8.9 9.6 13.2 17.8 26.5 24.6 49.3 15.4 58.4-13.7 13.7-58.3-8.8-99.6-50.3-17.7-17.8-31.9-36.1-41.3-52.4"/><path d="M704 35.4s21.3-19.7 58.4-.2c3.5 1.8 6.8 4 9.9 6.4 2.3 1.8 4.5 3.8 6.5 5.9 4.4 4.6 8.1 9.8 10.9 15.6.6 1.2 1.2 2.5 1.7 3.8 5.2 13.1 7.1 30.7-6 48.2m-23 22.3c-5.3 5.2-26.8-7.9-48.2-29.3-21.4-21.4-34.4-43-29.1-48.3 5.3-5.2 26.8 7.9 48.2 29.3 21.4 21.5 34.4 43.1 29.1 48.3z"/><path d="M772.3 41.6s26.5-20.4 27.7-19.7c1.2.7-21.2 25.6-21.2 25.6m17.6-32.3L802.5.8m1.3 19 10.1-9.7m-7.6 15.6 12.9-.7"/></g><path stroke="#FFF" d="M624 70.7s7.6-4.1 15 0"/><path stroke="#FFF" stroke-linecap="round" stroke-linejoin="round" d="M657.2 22.8s14-5.3 59.3 25.4"/><path stroke="#FFF" stroke-linecap="round" stroke-linejoin="round" stroke-width="2" d="M720.5 51s56 43.6 75.9 91.7"/></g></svg>