<?xml version="1.0" standalone="no"?><!DOCTYPE svg PUBLIC "-//W3C//DTD SVG 1.1//EN" "http://www.w3.org/Graphics/SVG/1.1/DTD/svg11.dtd"><svg t="1623578868505" class="icon" viewBox="0 0 1024 1024" version="1.1" xmlns="http://www.w3.org/2000/svg" p-id="5778" xmlns:xlink="http://www.w3.org/1999/xlink" width="200" height="200"><defs><style type="text/css"></style></defs><path d="M972.4928 217.4976a73.4208 73.4208 0 0 0-58.5728-64.0512 1415.7312 1415.7312 0 0 1-189.184-42.9568A706.1504 706.1504 0 0 1 555.52 14.4384a77.6704 77.6704 0 0 0-90.112 0 445.8496 445.8496 0 0 1-170.496 96.0512 639.0272 639.0272 0 0 1-183.8592 44.8512A67.8912 67.8912 0 0 0 53.1968 219.392S51.2 379.2384 51.2 520.448C51.2 776.4992 358.1952 1024 511.8464 1024c153.6 0 413.5936-174.592 455.0144-499.712 6.5536-101.888 7.68-204.0832 3.328-306.176H972.8l-0.3072-0.6144z m-167.168 197.9392l-320.512 297.216a43.6736 43.6736 0 0 1-53.248 5.12l-8.5504-7.0144L246.272 529.408a42.752 42.752 0 0 1 2.304-61.184 43.776 43.776 0 0 1 62.1568 2.56l145.7664 150.2208 288.8704-269.6704a44.4416 44.4416 0 0 1 62.5152 2.56c16.5376 17.7664 15.36 45.1072-2.6112 61.44z" p-id="5779"></path></svg>