<?xml version="1.0" standalone="no"?><!DOCTYPE svg PUBLIC "-//W3C//DTD SVG 1.1//EN" "http://www.w3.org/Graphics/SVG/1.1/DTD/svg11.dtd"><svg t="1602490756488" class="icon" viewBox="0 0 1028 1024" version="1.1" xmlns="http://www.w3.org/2000/svg" p-id="8811" xmlns:xlink="http://www.w3.org/1999/xlink" width="200.78125" height="200"><defs><style type="text/css"></style></defs><path d="M989.866667 234.666667h-490.666667c-17.066667 0-34.133333-21.333333-34.133333-42.666667 0-25.6 12.8-42.666667 34.133333-42.666667h490.666667c17.066667 0 34.133333 17.066667 34.133333 42.666667 0 21.333333-12.8 42.666667-34.133333 42.666667z m-473.6 128h465.066666c25.6 0 46.933333 21.333333 46.933334 42.666666 0 25.6-21.333333 42.666667-46.933334 42.666667H516.266667c-25.6 0-46.933333-17.066667-46.933334-42.666667s21.333333-42.666667 46.933334-42.666666z m0 298.666666c-25.6 0-46.933333-21.333333-46.933334-42.666666 0-25.6 21.333333-42.666667 46.933334-42.666667h465.066666c25.6 0 46.933333 17.066667 46.933334 42.666667s-21.333333 42.666667-46.933334 42.666666H516.266667z m4.266666 128h452.266667c29.866667 0 51.2 17.066667 51.2 42.666667s-21.333333 42.666667-51.2 42.666667h-452.266667c-29.866667 0-51.2-17.066667-51.2-42.666667s21.333333-42.666667 51.2-42.666667z m-192 25.6c-17.066667 17.066667-46.933333 17.066667-64 0l-251.733333-273.066666c-17.066667-17.066667-17.066667-51.2 0-68.266667l251.733333-273.066667c17.066667-17.066667 46.933333-17.066667 64 0s17.066667 51.2 0 68.266667l-221.866666 238.933333 221.866666 238.933334c17.066667 21.333333 17.066667 51.2 0 68.266666z" p-id="8812"></path></svg>