<svg xmlns="http://www.w3.org/2000/svg" width="200" height="200" class="icon" viewBox="0 0 1024 1024"><path fill="#DCA54F" d="m136.533 273.067 669.048 422.058c10.65 6.725 15.838 20.48 12.697 33.588-3.106 13.073-13.824 22.186-26.077 22.22H238.42c-27.306 0-50.346-22.425-53.726-52.326l-48.162-425.54z"/><path fill="#DCA54F" d="M834.219 698.607c-3.345 29.9-26.385 52.326-53.692 52.326H245.794c-12.288 0-41.984-9.113-45.124-22.186-3.175-13.073 2.048-26.863 12.697-33.588l668.98-422.092-48.128 425.506z"/><path fill="#E7B15C" d="m512 170.667 298.428 490.598a61.44 61.44 0 0 1 2.184 59.324c-9.489 18.705-27.818 30.344-47.718 30.344H512V170.667z"/><path fill="#F2D59C" d="M512 170.667 196.062 666.01a61.44 61.44 0 0 0-2.185 59.323c9.49 18.705 27.341 25.6 47.24 25.6H512V170.667z"/><path fill="#E7B15C" d="M459.776 153.327c0 18.193 9.967 34.987 26.112 44.1a53.35 53.35 0 0 0 52.224 0c16.145-9.113 26.112-25.941 26.112-44.1 0-28.126-23.381-50.927-52.224-50.927s-52.224 22.801-52.224 50.927zM851.319 255.18c-.41 18.432 9.455 35.67 25.771 45.022 16.316 9.318 36.523 9.318 52.873 0 16.315-9.353 26.18-26.59 25.77-45.056-.614-27.648-23.825-49.8-52.224-49.8-28.364 0-51.541 22.152-52.19 49.834zm-783.018 0c-.444 18.432 9.42 35.67 25.736 45.022 16.316 9.318 36.523 9.318 52.873 0 16.316-9.353 26.18-26.59 25.77-45.056-.614-27.648-23.825-49.8-52.223-49.8-28.365 0-51.542 22.152-52.19 49.834z"/><path fill="#DCA54F" d="M238.933 819.2h546.134q34.133 0 34.133 34.133 0 34.134-34.133 34.134H238.933q-34.133 0-34.133-34.134 0-34.133 34.133-34.133z"/></svg>