<svg xmlns="http://www.w3.org/2000/svg" width="200" height="200" class="icon" viewBox="0 0 1024 1024"><path fill="#FFC500" d="M512 768 262.059 899.413a28.444 28.444 0 0 1-41.245-30.009l47.702-278.3L66.332 394.012a28.444 28.444 0 0 1 15.759-48.526l279.438-40.59L486.485 51.684a28.444 28.444 0 0 1 51.03 0L662.47 304.896l279.438 40.59a28.444 28.444 0 0 1 15.759 48.526l-202.184 197.12 47.73 278.272a28.444 28.444 0 0 1-41.273 29.98L512 768z"/><path fill="#FED902" d="M512 768 262.059 899.413a28.444 28.444 0 0 1-41.245-30.009l47.702-278.3c36.124-190.805 67.128-286.208 93.013-286.208 38.827 0 393.955 261.774 393.955 286.208 0 16.299-81.18 75.264-243.484 176.896z"/></svg>