<svg xmlns="http://www.w3.org/2000/svg" width="200" height="200" class="icon" viewBox="0 0 1024 1024"><path d="M512 938.667C276.352 938.667 85.333 747.648 85.333 512S276.352 85.333 512 85.333 938.667 276.352 938.667 512 747.648 938.667 512 938.667zm0-85.334a341.333 341.333 0 1 0 0-682.666 341.333 341.333 0 0 0 0 682.666zm-213.333-128a213.333 213.333 0 0 1 426.666 0H640a128 128 0 0 0-256 0h-85.333zm42.666-256a64 64 0 1 1 0-128 64 64 0 0 1 0 128zm341.334 0a64 64 0 1 1 0-128 64 64 0 0 1 0 128z"/></svg>