<svg xmlns="http://www.w3.org/2000/svg" width="200" height="200" class="icon" viewBox="0 0 1024 1024"><path d="M512 85.333c235.648 0 426.667 191.019 426.667 426.667S747.648 938.667 512 938.667 85.333 747.648 85.333 512 276.352 85.333 512 85.333zm0 85.334a341.333 341.333 0 1 0 0 682.666 341.333 341.333 0 0 0 0-682.666zm0 298.666c85.333 0 156.459 14.208 213.333 42.667a213.333 213.333 0 0 1-426.666 0c56.874-28.459 128-42.667 213.333-42.667zM362.667 298.667A106.667 106.667 0 0 1 467.2 384H258.133a106.667 106.667 0 0 1 104.534-85.333zm298.666 0A106.667 106.667 0 0 1 765.867 384H556.8a106.667 106.667 0 0 1 104.533-85.333z"/></svg>