<svg xmlns="http://www.w3.org/2000/svg" width="200" height="200" class="icon" viewBox="0 0 1024 1024"><path fill="#FFA100" d="M270.219 121.212h483.474a29.257 29.257 0 0 1 23.347 11.645l188.416 249.885a29.257 29.257 0 0 1-1.843 37.42l-429.67 467.587a29.257 29.257 0 0 1-43.037.059L60.416 421.595a29.257 29.257 0 0 1-1.931-37.39l188.328-251.26a29.257 29.257 0 0 1 23.406-11.703z"/><path fill="#FFC663" d="m768.293 121.212 197.163 261.56a29.257 29.257 0 0 1-1.843 37.39L532.714 889.066a11.703 11.703 0 0 1-20.304-7.9L512 257.025l256.293-135.84z"/><path fill="#FFF" d="M721.598 386.34a29.257 29.257 0 0 1 .995 1.025l22.733 23.873a29.257 29.257 0 0 1 0 40.346l-189.411 198.89-22.733 23.874a29.257 29.257 0 0 1-1.726 1.668l1.755-1.668a29.491 29.491 0 0 1-19.456 9.011 28.935 28.935 0 0 1-18.08-4.915 30.193 30.193 0 0 1-4.857-4.096l1.96 1.872-.965-.877-.995-.995-22.733-23.874-189.41-198.89a29.257 29.257 0 0 1 0-40.375l22.732-23.844a29.257 29.257 0 0 1 42.364 0L512 563.96l168.229-176.596a29.257 29.257 0 0 1 41.37-1.024z"/></svg>