<?xml version="1.0" standalone="no"?><!DOCTYPE svg PUBLIC "-//W3C//DTD SVG 1.1//EN" "http://www.w3.org/Graphics/SVG/1.1/DTD/svg11.dtd"><svg t="1606244611237" class="icon" viewBox="0 0 1024 1024" version="1.1" xmlns="http://www.w3.org/2000/svg" p-id="10599" xmlns:xlink="http://www.w3.org/1999/xlink" width="32" height="32"><defs><style type="text/css"></style></defs><path d="M512 102.4a409.6 409.6 0 1 0 409.6 409.6A409.6 409.6 0 0 0 512 102.4z m0 760.448A350.848 350.848 0 1 1 862.848 512 351.36 351.36 0 0 1 512 862.848z" p-id="10600"></path><path d="M690.304 300.928a29.184 29.184 0 0 0-40.96 5.888L515.712 485.12h-7.424L374.528 307.2a29.312 29.312 0 0 0-46.72 35.2L435.2 485.12h-54.784a29.184 29.184 0 1 0 0 58.368h98.688l3.712 4.864v38.4h-102.4a29.312 29.312 0 0 0 0 58.496h102.4v102.4a29.184 29.184 0 1 0 58.368 0v-102.4h102.4a29.312 29.312 0 0 0 0-58.496h-102.4v-38.4l3.712-4.864h98.688a29.184 29.184 0 0 0 0-58.368H588.8l107.52-143.232a29.312 29.312 0 0 0-6.016-40.96z" p-id="10601"></path></svg>