<?xml version="1.0" standalone="no"?><!DOCTYPE svg PUBLIC "-//W3C//DTD SVG 1.1//EN" "http://www.w3.org/Graphics/SVG/1.1/DTD/svg11.dtd"><svg t="1606244485648" class="icon" viewBox="0 0 1024 1024" version="1.1" xmlns="http://www.w3.org/2000/svg" p-id="3840" xmlns:xlink="http://www.w3.org/1999/xlink" width="32" height="32"><defs><style type="text/css"></style></defs><path d="M878.839923 489.557872c-29.743418-46.99943-42.632983-97.607038-50.350758-151.176095C800.417829 143.543254 608.344279 17.634636 422.355307 75.30101c-122.815163 38.07927-197.606567 123.735116-222.487234 250.495124-11.623735 59.217706-22.740934 116.999714-56.889685 169.790034-34.465976 53.279461-43.7402 115.842355-39.244816 179.300642 2.598174 36.664038 13.791098 70.054519 40.995693 97.232508 8.18338 8.17417 16.292058 21.673625 15.855106 32.385595C157.439752 881.734856 203.099674 922.55454 267.783883 945.100022c71.653947 24.974811 144.967696 23.877827 215.783555-5.913687 19.298532-8.120958 34.81083-11.057847 55.073316-1.221828 58.244542 28.272927 120.866788 28.719088 182.709275 17.476023 98.704023-17.943674 142.117788-71.040986 142.442176-169.583327 30.92329-22.388916 50.297546-53.78702 54.758138-93.076862C926.706093 620.973924 917.838122 551.180348 878.839923 489.557872zM838.798974 657.789411c-0.548492 18.203594-7.91425 36.201503-15.062044 66.660212-25.233708-21.372773-39.48734-33.44574-54.692646-46.325072-17.59882 26.982538-34.342156 52.651151-52.5304 80.537268 10.998495 6.033413 23.922852 10.174734 32.673144 18.636452 12.17632 11.773138 27.230178 25.605168 30.187533 40.685631 4.279467 21.827121-15.522532 34.543747-33.881668 42.757826-58.291614 26.081005-118.835526 28.999474-175.528736 0.451278-40.527019-20.407796-73.857125-21.776979-114.390283-0.441045-53.107545 27.950586-110.563118 24.686239-166.788677 4.916986-6.126534-2.15406-12.06785-5.220908-17.572214-8.691963-36.835953-23.222911-37.795814-52.718689-2.01796-76.576049 11.973706-7.984858 25.355481-13.856589 38.788421-21.067828-17.692964-27.946492-34.155914-53.952796-51.922557-82.016968-14.903431 12.717649-29.839609 25.463951-45.512566 38.838563-28.297486-21.744233-26.875091-48.762587-25.337061-74.009597 3.244904-53.263088 17.491373-103.337553 53.943586-144.310733 13.664208-15.358803 18.34788-31.764448 21.015639-52.398394 5.809309-44.936445 14.762215-89.923032 27.453259-133.423779 30.692023-105.216343 129.925095-174.186158 237.44183-168.359452 105.724926 5.728468 195.385992 82.576717 217.572294 187.953719 9.342786 44.37465 15.066137 89.524966 24.912389 133.771703 2.943029 13.225209 13.254885 25.369807 21.944801 36.657898C824.935222 548.074613 840.521199 600.542592 838.798974 657.789411z" p-id="3841"></path></svg>