<svg class="icon" viewBox="0 0 1024 1024" xmlns="http://www.w3.org/2000/svg" width="32" height="32"><path d="M512 102.4A409.6 409.6 0 1 0 921.6 512 409.6 409.6 0 0 0 512 102.4zm0 760.448A350.848 350.848 0 1 1 862.848 512 351.36 351.36 0 0 1 512 862.848z"/><path d="M690.304 300.928a29.184 29.184 0 0 0-40.96 5.888L515.712 485.12h-7.424L374.528 307.2a29.312 29.312 0 0 0-46.72 35.2L435.2 485.12h-54.784a29.184 29.184 0 1 0 0 58.368h98.688l3.712 4.864v38.4h-102.4a29.312 29.312 0 0 0 0 58.496h102.4v102.4a29.184 29.184 0 1 0 58.368 0v-102.4h102.4a29.312 29.312 0 0 0 0-58.496h-102.4v-38.4l3.712-4.864h98.688a29.184 29.184 0 0 0 0-58.368H588.8l107.52-143.232a29.312 29.312 0 0 0-6.016-40.96z"/></svg>