<svg class="icon" viewBox="0 0 1113 1024" xmlns="http://www.w3.org/2000/svg" width="217.383" height="200"><path d="M639.918 471.178c-24.795.045-44.88 20.144-44.903 44.939 0 24.85 20.143 45.061 44.903 45.061 24.759 0 44.902-20.211 44.902-45.059-.022-24.798-20.107-44.897-44.898-44.941zm399.873-346.139c0-34.621-28.116-62.775-62.668-62.775H302.71c-34.552 0-62.657 28.154-62.657 62.766v62.775h54.322v-71.12h691.082v443.348h-70.993v54.421h62.657c34.553 0 62.668-28.164 62.668-62.766V125.029zm-577.35 346.139c-24.8.038-44.89 20.14-44.912 44.939 0 24.85 20.152 45.061 44.912 45.061s44.902-20.211 44.902-45.059c-.022-24.798-20.108-44.897-44.898-44.941z"/><path d="M862.316 302.818c0-34.611-28.116-62.766-62.668-62.766H125.235c-34.553 0-62.657 28.154-62.657 62.766v426.65c0 34.611 28.105 62.766 62.657 62.766h79.318v166.05l165.697-166.05h429.398c34.552 0 62.657-28.154 62.657-62.766v-426.65zM804.5 734.329H346.332l-83.975 84.111v-84.111H120.373V297.956H804.51v436.382z"/><path d="M284.966 471.178c-24.8.038-44.89 20.14-44.912 44.939 0 24.85 20.152 45.061 44.903 45.061 24.77 0 44.922-20.211 44.922-45.059-.022-24.801-20.113-44.902-44.909-44.941z"/></svg>