<?xml version="1.0" standalone="no"?><!DOCTYPE svg PUBLIC "-//W3C//DTD SVG 1.1//EN" "http://www.w3.org/Graphics/SVG/1.1/DTD/svg11.dtd"><svg t="1606244516889" class="icon" viewBox="0 0 1024 1024" version="1.1" xmlns="http://www.w3.org/2000/svg" p-id="4604" xmlns:xlink="http://www.w3.org/1999/xlink" width="32" height="32"><defs><style type="text/css"></style></defs><path d="M766.46 172.7H610.53c-17.51 0-34.29 5.42-48.5 15.67l-29.79 21.49a27.623 27.623 0 0 1-32.34 0l-29.79-21.49c-14.21-10.25-30.98-15.67-48.5-15.67H257.54c-45.71 0-82.9 37.19-82.9 82.9V726c0 45.71 37.19 82.9 82.9 82.9h164.07c5.85 0 11.43 1.8 16.17 5.22l29.79 21.49a82.783 82.783 0 0 0 48.5 15.69c17 0 34-5.24 48.5-15.69l29.81-21.5c4.72-3.41 10.31-5.21 16.15-5.21h155.93c45.71 0 82.9-37.19 82.9-82.9V255.6c0-45.72-37.19-82.9-82.9-82.9z m27.63 553.29c0 15.24-12.4 27.63-27.63 27.63H610.53c-17.54 0-34.31 5.42-48.5 15.67l-29.79 21.49a27.623 27.623 0 0 1-32.34 0l-29.78-21.48c-14.2-10.27-30.97-15.68-48.51-15.68H257.54c-15.24 0-27.63-12.39-27.63-27.63V255.6c0-15.24 12.4-27.63 27.63-27.63h164.07c5.84 0 11.43 1.8 16.17 5.22l29.79 21.49c5.28 3.81 10.97 6.68 16.8 9.11v239.83c0 15.26 12.37 27.63 27.63 27.63s27.63-12.37 27.63-27.63V266.83c8.76-2.6 17.21-6.58 24.93-12.15l29.79-21.49a27.484 27.484 0 0 1 16.17-5.22h155.93c15.24 0 27.63 12.39 27.63 27.63v470.39z" p-id="4605"></path></svg>