<?xml version="1.0" standalone="no"?><!DOCTYPE svg PUBLIC "-//W3C//DTD SVG 1.1//EN" "http://www.w3.org/Graphics/SVG/1.1/DTD/svg11.dtd"><svg t="1610473078630" class="icon" viewBox="0 0 1113 1024" version="1.1" xmlns="http://www.w3.org/2000/svg" p-id="2957" xmlns:xlink="http://www.w3.org/1999/xlink" width="217.3828125" height="200"><defs><style type="text/css"></style></defs><path d="M639.918 471.178c-24.795 0.045-44.88 20.144-44.903 44.939 0 24.85 20.143 45.061 44.903 45.061 24.759 0 44.902-20.211 44.902-45.059-0.022-24.798-20.107-44.897-44.898-44.941zM1039.791 125.039c0-34.621-28.116-62.775-62.668-62.775h-674.413c-34.552 0-62.657 28.154-62.657 62.766v62.775h54.322v-71.12h691.082v443.348h-70.993v54.421h62.657c34.553 0 62.668-28.164 62.668-62.766v-426.659zM462.441 471.178c-24.8 0.038-44.89 20.14-44.912 44.939 0 24.85 20.152 45.061 44.912 45.061s44.902-20.211 44.902-45.059c-0.022-24.798-20.108-44.897-44.898-44.941z" p-id="2958"></path><path d="M862.316 302.818c0-34.611-28.116-62.766-62.668-62.766h-674.413c-34.553 0-62.657 28.154-62.657 62.766v426.65c0 34.611 28.105 62.766 62.657 62.766h79.318v166.050l165.697-166.050h429.398c34.552 0 62.657-28.154 62.657-62.766v-426.65zM804.5 734.329h-458.168l-83.975 84.111v-84.111h-141.984v-436.373h684.137v436.382z" p-id="2959"></path><path d="M284.966 471.178c-24.8 0.038-44.89 20.14-44.912 44.939 0 24.85 20.152 45.061 44.903 45.061 24.77 0 44.922-20.211 44.922-45.059-0.022-24.801-20.113-44.902-44.909-44.941z" p-id="2960"></path></svg>