<svg xmlns="http://www.w3.org/2000/svg" width="200" height="200" class="icon" viewBox="0 0 1024 1024"><path d="M704 328a72 72 0 1 0 144 0 72 72 0 1 0-144 0z"/><path d="M999.904 116.608a32 32 0 0 0-21.952-10.912L521.76 73.792a31.552 31.552 0 0 0-27.2 11.904l-92.192 114.848a32 32 0 0 0 .672 40.896l146.144 169.952-147.456 194.656 36.48-173.376a32 32 0 0 0-11.136-31.424L235.616 245.504l79.616-125.696a32 32 0 0 0-29.28-49.024L45.76 87.552a32 32 0 0 0-29.696 34.176l55.808 798.016a32.064 32.064 0 0 0 34.304 29.696l176.512-13.184c17.632-1.312 30.848-16.672 29.504-34.272s-16.576-31.04-34.304-29.536L133.44 883.232l-6.432-92.512 125.312-12.576a32 32 0 0 0 28.672-35.04 32.16 32.16 0 0 0-35.04-28.672L122.56 726.848 82.144 149.184l145.152-10.144-60.96 96.224a32 32 0 0 0 6.848 41.952l198.4 161.344-58.752 279.296a30.912 30.912 0 0 0 .736 14.752 31.68 31.68 0 0 0 1.408 11.04l51.52 154.56a31.968 31.968 0 0 0 27.456 21.76l523.104 47.552a32.064 32.064 0 0 0 34.848-29.632l55.776-798.048a32.064 32.064 0 0 0-7.776-23.232zm-98.912 630.848-412.576-39.648a31.52 31.52 0 0 0-34.912 28.768 32 32 0 0 0 28.8 34.912l414.24 39.808-6.272 89.536-469.728-42.72-39.584-118.72 234.816-310.016a31.936 31.936 0 0 0-1.248-40.192L468.896 219.84l65.088-81.056 407.584 28.48-40.576 580.192z"/></svg>