<?xml version="1.0" standalone="no"?><!DOCTYPE svg PUBLIC "-//W3C//DTD SVG 1.1//EN" "http://www.w3.org/Graphics/SVG/1.1/DTD/svg11.dtd"><svg t="1601188298880" class="icon" viewBox="0 0 1024 1024" version="1.1" xmlns="http://www.w3.org/2000/svg" p-id="4699" xmlns:xlink="http://www.w3.org/1999/xlink" width="200" height="200"><defs><style type="text/css"></style></defs><path d="M960 416V192l-73.056 73.056a447.712 447.712 0 0 0-373.6-201.088C265.92 63.968 65.312 264.544 65.312 512S265.92 960.032 513.344 960.032a448.064 448.064 0 0 0 415.232-279.488 38.368 38.368 0 1 0-71.136-28.896 371.36 371.36 0 0 1-344.096 231.584c-205.024 0-371.232-166.208-371.232-371.232S308.32 140.768 513.344 140.768c132.448 0 251.936 70.08 318.016 179.84L736 416h224z" p-id="4700"></path></svg>