<?xml version="1.0" standalone="no"?><!DOCTYPE svg PUBLIC "-//W3C//DTD SVG 1.1//EN" "http://www.w3.org/Graphics/SVG/1.1/DTD/svg11.dtd"><svg t="1600500029508" class="icon" viewBox="0 0 1024 1024" version="1.1" xmlns="http://www.w3.org/2000/svg" p-id="5953" xmlns:xlink="http://www.w3.org/1999/xlink" width="200" height="200"><defs><style type="text/css"></style></defs><path d="M936.83333333 853.8L772.53333333 689.5c52.5-65.9 83.9-149.3 83.9-240.1 0-212.9-172.6-385.6-385.6-385.6S85.23333333 236.5 85.23333333 449.4 257.83333333 835 470.83333333 835c90.9 0 174.5-31.5 240.4-84.1l164.3 164.3c16.7 16.7 44 16.7 60.7 0l0.6-0.6c16.7-16.8 16.7-44.1 0-60.8zM172.03333333 449.4c0-165 133.8-298.8 298.8-298.8s298.8 133.8 298.8 298.8-133.8 298.9-298.8 298.9-298.8-133.8-298.8-298.9z" p-id="5954"></path></svg>