<svg xmlns="http://www.w3.org/2000/svg" width="232.422" height="200" class="icon" viewBox="0 0 1190 1024"><path d="M610.533 122.802A890.76 890.76 0 0 1 668.74 51.22a140.855 140.855 0 0 1 212.38 0q132.528 132.014 263.63 265.454a143.25 143.25 0 0 1 1.083 209.243q-223.76 227.667-449.972 452.88a140.484 140.484 0 0 1-205.592-.57Q266.309 755.61 45.374 530.11a142.595 142.595 0 0 1 1.14-209.272q135.18-139.087 273.297-275.18a142.595 142.595 0 0 1 210.698 2.453c22.473 22.416 41.523 48.311 62.114 72.61zm-66.906 55.812c-28.975-24.669-53.415-45.117-77.428-66.05a57.038 57.038 0 0 0-85.3 1.283q-133.897 133.07-266.053 267.85c-30.715 31.37-29.717 57.038.427 90.148 13.09 14.26 27.265 27.72 40.954 41.552L540.86 900.542c30.972 31.114 59.89 36.19 87.61 15.999 15.6-11.408 30.715-23.414 46.058-35.164l1.227-17.111c-25.154-21.333-51.334-41.467-75.12-64.31-28.147-27.15-29.63-49.48-8.555-71.298s44.832-20.619 71.297 6.417c23.072 23.642 43.492 49.88 70.214 80.908l51.733-57.58c-28.946-26.58-57.038-49.822-82.106-76.088s-19.963-61.972 12.663-72.181a69.615 69.615 0 0 1 54.015 13.033 770.98 770.98 0 0 1 72.666 69.928l95.167-93.742-234.796-236.421c-8.556 7.985-20.762 19.706-33.196 31.37a179.27 179.27 0 0 1-221.079 18.196c-55.982-37.503-60.488-79.197-13.118-126.995 32.768-33.054 66.22-65.594 108.172-106.86zM511.43 342.94a93.029 93.029 0 0 0 101.498-21.104c16.541-17.368 33.624-34.223 50.793-51.049 34.907-34.223 54.186-34.223 89.406 1.112q115.131 115.302 229.777 231.003c8.556 8.699 17.739 16.912 34.68 33.025 19.364-23.014 36.19-44.575 54.699-64.538 35.62-38.472 36.019-62-1.512-99.987Q948.938 248.2 826.592 125.569c-39.67-39.756-64.082-39.756-104.151.285q-94.626 94.54-188.538 189.85c-6.788 6.73-12.406 14.859-22.473 27.122z"/></svg>