<svg class="icon" viewBox="0 0 1024 1024" xmlns="http://www.w3.org/2000/svg" width="32" height="32"><path d="M512 384c-204.8 0-426.667-55.467-426.667-170.667S307.2 42.667 512 42.667s426.667 55.466 426.667 170.666S716.8 384 512 384zm0-256c-221.867 0-341.333 64-341.333 85.333S290.133 298.667 512 298.667s341.333-64 341.333-85.334S733.867 128 512 128zm0 554.667C307.2 682.667 85.333 627.2 85.333 512c0-25.6 17.067-42.667 42.667-42.667S170.667 486.4 170.667 512c0 21.333 106.666 85.333 341.333 85.333s341.333-64 341.333-85.333c0-25.6 17.067-42.667 42.667-42.667S938.667 486.4 938.667 512c0 115.2-221.867 170.667-426.667 170.667z"/><path d="M512 981.333c-204.8 0-426.667-55.466-426.667-170.666V213.333c0-25.6 17.067-42.666 42.667-42.666s42.667 17.066 42.667 42.666v597.334C170.667 832 277.333 896 512 896s341.333-64 341.333-85.333V213.333c0-25.6 17.067-42.666 42.667-42.666s42.667 17.066 42.667 42.666v597.334c0 115.2-221.867 170.666-426.667 170.666z"/></svg>