<svg class="icon" viewBox="0 0 1024 1024" xmlns="http://www.w3.org/2000/svg" width="200" height="200"><path d="M804.571 530.286v182.857q0 68-48.285 116.286T640 877.714H164.571q-68 0-116.285-48.285T0 713.143V237.714q0-68 48.286-116.285T164.57 73.143h402.286q8 0 13.143 5.143t5.143 13.143V128q0 8-5.143 13.143t-13.143 5.143H164.571q-37.714 0-64.571 26.857t-26.857 64.571v475.429q0 37.714 26.857 64.571t64.571 26.857H640q37.714 0 64.571-26.857t26.858-64.571V530.286q0-8 5.142-13.143T749.714 512h36.572q8 0 13.143 5.143t5.142 13.143zM1024 36.57v292.572q0 14.857-10.857 25.714t-25.714 10.857-25.715-10.857L861.143 254.286 488.57 626.857q-5.714 5.714-13.142 5.714t-13.143-5.714l-65.143-65.143q-5.714-5.714-5.714-13.143t5.714-13.142l372.571-372.572L669.143 62.286q-10.857-10.857-10.857-25.715t10.857-25.714T694.857 0H987.43q14.857 0 25.714 10.857T1024 36.571z"/></svg>