<?xml version="1.0" standalone="no"?><!DOCTYPE svg PUBLIC "-//W3C//DTD SVG 1.1//EN" "http://www.w3.org/Graphics/SVG/1.1/DTD/svg11.dtd"><svg t="1628158537840" class="icon" viewBox="0 0 1024 1024" version="1.1" xmlns="http://www.w3.org/2000/svg" p-id="1342" xmlns:xlink="http://www.w3.org/1999/xlink" width="200" height="200"><defs><style type="text/css"></style></defs><path d="M954.391106 733.455997c-0.269471 42.495631-22.366122 51.954075-22.366122 51.954075s-380.897745 220.131141-405.662161 233.901127c-24.521892 10.53633-40.959644 0-40.959645 0S86.882008 788.15868 72.330555 777.99961c-14.551453-10.15907-14.901765-26.003985-14.901765-26.003985s0.404207-457.724025 0-478.93142c-0.404207-21.180448 26.057879-37.106204 26.057879-37.106204L481.711421 5.748632c24.521892-12.934625 48.370106 0 48.370106 0s351.821787 204.52875 390.787343 226.490665c38.237984 18.162369 33.522235 55.67278 33.522236 55.67278s0.215577 406.039421 0 445.54392z m-159.015041-459.421695a166166.674868 166166.674868 0 0 1-273.621202-158.233573s-18.755206-10.132123-37.99546 0L171.091803 295.942323s-20.776241 12.476523-20.479823 29.04901c0.323366 16.599435 0 374.83464 0 374.83464s0.269471 12.395682 11.695057 20.345087 324.362657 188.845518 324.362657 188.845517 12.88073 8.245823 32.147931 0c19.455831-10.778854 318.515129-183.051884 318.515129-183.051884s17.327007-7.410462 17.515637-40.690172c0.080841-9.566233 0.107789-46.807172 0.107789-93.560451L502.837974 805.054533v-81.62287c0-33.522235 25.95009-55.645833 25.950091-55.645833l311.454979-187.659844c11.748951-12.287893 14.174193-31.932354 14.659241-39.369763v-82.727703L502.837974 571.288142v-85.314628c0-33.549182 22.258333-48.235371 22.258333-48.23537l270.279758-163.730789z" p-id="1343"></path></svg>