<svg xmlns="http://www.w3.org/2000/svg" width="200" height="200" class="icon" viewBox="0 0 1024 1024"><path d="m878.6 246.4-328-196.6c-3-1.6-6-3.2-9-4.4-3.2-1.2-6.4-2.4-9.6-3.2-3.2-.8-6.6-1.6-10-2-3.4-.4-6.8-.6-10-.6-3.4 0-6.8.2-10 .6-3.4.4-6.6 1-10 2-3.2.8-6.4 2-9.6 3.2-3.2 1.2-6.2 2.8-9 4.4l-328 196.6c-3 1.8-5.8 3.8-8.4 6s-5.2 4.4-7.6 7c-2.4 2.4-4.6 5.2-6.6 7.8-2 2.8-4 5.6-5.6 8.6-1.6 3-3.2 6.2-4.4 9.4-1.2 3.2-2.4 6.4-3.2 9.8-.8 3.4-1.4 6.8-2 10.2-.4 3.4-.6 6.8-.6 10.4v392.8c0 3.4.2 6.8.6 10.4.4 3.4 1 6.8 2 10.2.8 3.4 2 6.6 3.2 9.8 1.2 3.2 2.8 6.4 4.4 9.4 1.6 3 3.6 6 5.6 8.6 2 2.8 4.2 5.4 6.6 8 2.4 2.4 5 4.8 7.6 7 2.6 2.2 5.6 4.2 8.4 6l86 51.4.4.2c43.4 22.2 60 22.2 79.2 22.2 67.8 0 110-43.8 110-114.6V355.8c0-1.2 0-2.4-.4-3.4s-.6-2.2-1-3.4c-.4-1-1-2.2-1.6-3.2-.6-1-1.4-1.8-2.2-2.8-.8-.8-1.8-1.6-2.6-2.2s-2-1.2-3-1.6c-1-.4-2.2-.8-3.4-1-1.2-.2-2.4-.4-3.4-.4h-47.2c-1.2 0-2.4.2-3.4.4-1.2.2-2.2.6-3.4 1-1 .4-2.2 1-3 1.6-1 .6-1.8 1.4-2.6 2.2-.8.8-1.6 1.8-2.2 2.8-.6 1-1.2 2-1.6 3.2-.4 1-.8 2.2-1 3.4s-.4 2.4-.4 3.4v380.8c0 2.8-.2 5.4-.8 8-.6 2.6-1.6 5.2-2.8 7.6-1.2 2.4-2.8 4.6-4.6 6.6-1.8 2-4 3.8-6.2 5.2-12.4 7.6-30.6 6-51-4.6L190.6 710c-.6-.4-1-1.2-1-2V321c0-1 .4-1.8 1.2-2.2L511 122.6c.6-.2 1-.2 1.6 0L833 318.8c.8.6 1.2 1.4 1.2 2.4v387c0 .8-.2 1.6-1 2.2L512.4 901.6c-.6.2-1.2.2-1.6 0l-82-48.6c-1.2-.8-2.6-1.4-3.8-1.8-1.4-.4-2.8-.8-4.2-.8-1.4 0-2.8 0-4.4.4-1.4.4-2.8.8-4 1.4l-.8.4C389 866 383 869.4 362 877.2c-3.4 1.2-11.4 4.2-12.2 12.2s7 13.6 13.8 17.6L473 974.2c5.8 3.4 12 6.2 18.6 8 6.6 1.8 13.2 2.8 20 2.8h1.2c6.6-.2 13.2-1 19.6-2.8 6.4-1.8 12.4-4.4 18.2-7.8L878.4 778c3-1.8 5.8-3.8 8.4-6 2.6-2.2 5.2-4.6 7.6-7 2.4-2.4 4.6-5.2 6.6-8s4-5.6 5.6-8.8 3.2-6.2 4.4-9.4c1.2-3.2 2.4-6.4 3.2-9.8.8-3.4 1.6-6.8 2-10.2.4-3.4.6-6.8.6-10.4v-393c0-3.4-.2-6.8-.6-10.4-.4-3.4-1-6.8-2-10.2-.8-3.4-2-6.6-3.2-9.8s-2.8-6.4-4.4-9.4c-1.6-3-3.6-6-5.6-8.6-2-2.8-4.2-5.4-6.6-7.8-2.4-2.4-5-4.8-7.6-7-2.6-2-5.4-4-8.2-5.8z"/><path d="M621.4 642.8c-78.6 0-95.4-22-100.4-57.4l-.6-3-1.2-3c-.4-1-1-1.8-1.8-2.6-.6-.8-1.4-1.6-2.2-2.4-.8-.8-1.6-1.4-2.6-1.8-1-.6-1.8-1-2.8-1.4-1-.4-2-.6-3-.8-1-.2-2-.4-3.2-.4H462c-1.2 0-2.4.2-3.4.4-1.2.2-2.2.6-3.4 1-1 .4-2 1-3 1.8-1 .6-1.8 1.4-2.6 2.2-.8.8-1.6 1.8-2.2 2.8-.6 1-1.2 2-1.6 3-.4 1-.8 2.2-1 3.4-.2 1.2-.4 2.4-.2 3.4 0 30.8 10.8 131.2 177 131.2 51.4 0 94.2-12 123.6-34.8 29.4-22.8 45.2-55.8 45.2-95.4 0-79.2-51.6-100.8-153.4-115-103.4-14.4-103.4-21.8-103.4-37.8 0-11.6 0-38.6 74.8-38.6 53.2 0 81.8 6.8 90.8 42.2.2 1 .4 2 .8 2.8.4 1 .8 1.8 1.4 2.6.6.8 1 1.6 1.8 2.4.6.8 1.4 1.4 2.2 2 .8.6 1.6 1.2 2.4 1.6.8.4 1.8 1 2.6 1.2 1 .4 1.8.6 2.8.8s2 .2 3 .2h42c2.4 0 4.8-.6 7.2-1.6 2.2-1 4.2-2.6 5.8-4.4 1.6-1.8 2.8-4 3.6-6.4.8-2.4 1-4.8.8-7.2-5.4-75-60.2-113-167.2-113-97.2 0-155.2 43.8-155.2 117 0 80.4 60 103 150.4 112.4C709 561.2 709 577 709 591c.2 22.6-9 51.8-87.6 51.8z"/></svg>