<?xml version="1.0" standalone="no"?><!DOCTYPE svg PUBLIC "-//W3C//DTD SVG 1.1//EN" "http://www.w3.org/Graphics/SVG/1.1/DTD/svg11.dtd"><svg t="1638238564149" class="icon" viewBox="0 0 1025 1024" version="1.1" xmlns="http://www.w3.org/2000/svg" p-id="2333" xmlns:xlink="http://www.w3.org/1999/xlink" width="200.1953125" height="200"><defs><style type="text/css"></style></defs><path d="M960.13 661.73c45.18-217.23-72.82-435.39-279.35-516.48C668.79 62.35 597.7 0.84 513.93 0.9 430.17 0.85 359.09 62.35 347.11 145.25 172.89 213.66 58.28 381.73 58.23 568.91c0 23.86 3.21 54.82 9.53 92.77-39.81 30.79-65.38 78.96-65.38 133.1 0.02 44.67 17.8 87.5 49.4 119.07a168.43 168.43 0 0 0 119.13 49.27c29.77 0 57.76-7.68 81.95-21.16a454.28 454.28 0 0 0 261.08 82.03c93.38 0.16 184.54-28.51 261.03-82.08 24.28 13.49 52.23 21.25 81.99 21.25 44.67 0.03 87.52-17.7 119.13-49.27a168.394 168.394 0 0 0 49.4-119.08 167.91 167.91 0 0 0-65.36-133.08zM512.67 74c51.95 0 94.06 42.1 94.06 93.93 0.03 51.92-42.03 94.03-93.94 94.07-51.92 0.03-94.03-42.03-94.06-93.94-0.04-51.92 42.02-94.04 93.94-94.06zM171.59 884.57c-51.92 0.03-94.03-42.03-94.06-93.94-0.04-51.92 42.02-94.03 93.94-94.06 51.95 0 94.06 42.1 94.06 93.93 0.03 51.93-42.03 94.04-93.94 94.07z m536.95-9.94c-57.43 36.55-124.44 56.51-194.61 56.51a360.66 360.66 0 0 1-194.58-56.56 167.297 167.297 0 0 0 20.09-79.75c0-92.97-77.1-175.32-183.55-167.6 0 0-5.72-35.81-4.65-58.32 0.04-141.03 81.92-269.23 209.87-328.56 27.74 59.34 87.32 97.24 152.82 97.2 66.03 0 123.14-36.47 152.76-97.29 127.98 59.35 209.89 187.58 209.92 328.65 0 19.71-4.74 58.32-4.74 58.32-104.78-9.35-183.46 74.59-183.46 167.6a167.3 167.3 0 0 0 20.13 79.8z m144.05 9.94c-51.92 0.03-94.03-42.03-94.06-93.94-0.04-51.92 42.02-94.03 93.94-94.06 51.95 0 94.06 42.1 94.06 93.93 0.03 51.93-42.03 94.04-93.94 94.07z" p-id="2334"></path></svg>