<?xml version="1.0" standalone="no"?><!DOCTYPE svg PUBLIC "-//W3C//DTD SVG 1.1//EN" "http://www.w3.org/Graphics/SVG/1.1/DTD/svg11.dtd"><svg t="1642536450105" class="icon" viewBox="0 0 1024 1024" version="1.1" xmlns="http://www.w3.org/2000/svg" p-id="6835" xmlns:xlink="http://www.w3.org/1999/xlink" width="200" height="200"><defs><style type="text/css"></style></defs><path d="M878.6 246.4l-328-196.6c-3-1.6-6-3.2-9-4.4-3.2-1.2-6.4-2.4-9.6-3.2-3.2-0.8-6.6-1.6-10-2-3.4-0.4-6.8-0.6-10-0.6-3.4 0-6.8 0.2-10 0.6-3.4 0.4-6.6 1-10 2-3.2 0.8-6.4 2-9.6 3.2-3.2 1.2-6.2 2.8-9 4.4l-328 196.6c-3 1.8-5.8 3.8-8.4 6s-5.2 4.4-7.6 7c-2.4 2.4-4.6 5.2-6.6 7.8-2 2.8-4 5.6-5.6 8.6-1.6 3-3.2 6.2-4.4 9.4-1.2 3.2-2.4 6.4-3.2 9.8-0.8 3.4-1.4 6.8-2 10.2-0.4 3.4-0.6 6.8-0.6 10.4v392.8c0 3.4 0.2 6.8 0.6 10.4 0.4 3.4 1 6.8 2 10.2 0.8 3.4 2 6.6 3.2 9.8 1.2 3.2 2.8 6.4 4.4 9.4 1.6 3 3.6 6 5.6 8.6 2 2.8 4.2 5.4 6.6 8 2.4 2.4 5 4.8 7.6 7 2.6 2.2 5.6 4.2 8.4 6l86 51.4 0.4 0.2c43.4 22.2 60 22.2 79.2 22.2 67.8 0 110-43.8 110-114.6V355.8c0-1.2 0-2.4-0.4-3.4s-0.6-2.2-1-3.4c-0.4-1-1-2.2-1.6-3.2-0.6-1-1.4-1.8-2.2-2.8-0.8-0.8-1.8-1.6-2.6-2.2s-2-1.2-3-1.6c-1-0.4-2.2-0.8-3.4-1-1.2-0.2-2.4-0.4-3.4-0.4h-47.2c-1.2 0-2.4 0.2-3.4 0.4-1.2 0.2-2.2 0.6-3.4 1-1 0.4-2.2 1-3 1.6-1 0.6-1.8 1.4-2.6 2.2-0.8 0.8-1.6 1.8-2.2 2.8-0.6 1-1.2 2-1.6 3.2-0.4 1-0.8 2.2-1 3.4s-0.4 2.4-0.4 3.4v380.8c0 2.8-0.2 5.4-0.8 8-0.6 2.6-1.6 5.2-2.8 7.6-1.2 2.4-2.8 4.6-4.6 6.6-1.8 2-4 3.8-6.2 5.2-12.4 7.6-30.6 6-51-4.6L190.6 710c-0.6-0.4-1-1.2-1-2V321c0-1 0.4-1.8 1.2-2.2l320.2-196.2c0.6-0.2 1-0.2 1.6 0l320.4 196.2c0.8 0.6 1.2 1.4 1.2 2.4v387c0 0.8-0.2 1.6-1 2.2l-320.8 191.2c-0.6 0.2-1.2 0.2-1.6 0l-82-48.6c-1.2-0.8-2.6-1.4-3.8-1.8-1.4-0.4-2.8-0.8-4.2-0.8-1.4 0-2.8 0-4.4 0.4-1.4 0.4-2.8 0.8-4 1.4l-0.8 0.4c-22.6 13.4-28.6 16.8-49.6 24.6-3.4 1.2-11.4 4.2-12.2 12.2s7 13.6 13.8 17.6l109.4 67.2c5.8 3.4 12 6.2 18.6 8 6.6 1.8 13.2 2.8 20 2.8h1.2c6.6-0.2 13.2-1 19.6-2.8 6.4-1.8 12.4-4.4 18.2-7.8L878.4 778c3-1.8 5.8-3.8 8.4-6 2.6-2.2 5.2-4.6 7.6-7 2.4-2.4 4.6-5.2 6.6-8s4-5.6 5.6-8.8 3.2-6.2 4.4-9.4c1.2-3.2 2.4-6.4 3.2-9.8 0.8-3.4 1.6-6.8 2-10.2 0.4-3.4 0.6-6.8 0.6-10.4V315.4c0-3.4-0.2-6.8-0.6-10.4-0.4-3.4-1-6.8-2-10.2-0.8-3.4-2-6.6-3.2-9.8s-2.8-6.4-4.4-9.4c-1.6-3-3.6-6-5.6-8.6-2-2.8-4.2-5.4-6.6-7.8-2.4-2.4-5-4.8-7.6-7-2.6-2-5.4-4-8.2-5.8z" p-id="6836"></path><path d="M621.4 642.8c-78.6 0-95.4-22-100.4-57.4l-0.6-3-1.2-3c-0.4-1-1-1.8-1.8-2.6-0.6-0.8-1.4-1.6-2.2-2.4-0.8-0.8-1.6-1.4-2.6-1.8-1-0.6-1.8-1-2.8-1.4-1-0.4-2-0.6-3-0.8-1-0.2-2-0.4-3.2-0.4H462c-1.2 0-2.4 0.2-3.4 0.4-1.2 0.2-2.2 0.6-3.4 1-1 0.4-2 1-3 1.8-1 0.6-1.8 1.4-2.6 2.2-0.8 0.8-1.6 1.8-2.2 2.8-0.6 1-1.2 2-1.6 3-0.4 1-0.8 2.2-1 3.4-0.2 1.2-0.4 2.4-0.2 3.4 0 30.8 10.8 131.2 177 131.2 51.4 0 94.2-12 123.6-34.8 29.4-22.8 45.2-55.8 45.2-95.4 0-79.2-51.6-100.8-153.4-115-103.4-14.4-103.4-21.8-103.4-37.8 0-11.6 0-38.6 74.8-38.6 53.2 0 81.8 6.8 90.8 42.2 0.2 1 0.4 2 0.8 2.8 0.4 1 0.8 1.8 1.4 2.6 0.6 0.8 1 1.6 1.8 2.4 0.6 0.8 1.4 1.4 2.2 2 0.8 0.6 1.6 1.2 2.4 1.6 0.8 0.4 1.8 1 2.6 1.2 1 0.4 1.8 0.6 2.8 0.8s2 0.2 3 0.2h42c2.4 0 4.8-0.6 7.2-1.6 2.2-1 4.2-2.6 5.8-4.4 1.6-1.8 2.8-4 3.6-6.4 0.8-2.4 1-4.8 0.8-7.2-5.4-75-60.2-113-167.2-113-97.2 0-155.2 43.8-155.2 117 0 80.4 60 103 150.4 112.4 105.4 11 105.4 26.8 105.4 40.8 0.2 22.6-9 51.8-87.6 51.8z" p-id="6837"></path></svg>