<svg xmlns="http://www.w3.org/2000/svg" width="200" height="200" class="icon" viewBox="0 0 1024 1024"><path d="M165.415 827.077c-11.815 0-19.692-7.877-19.692-19.692V214.646c0-11.815 7.877-19.692 19.692-19.692h159.508c7.877 0 17.723 3.938 23.63 9.846l228.432 287.508c7.877 9.846 7.877 25.6 0 37.415l-230.4 287.508c-5.908 7.877-15.754 11.815-25.6 11.815l-155.57-1.97zm706.954-334.77L641.97 206.77c-9.846-11.815-27.569-15.754-41.354-3.938l-45.292 37.415c-13.785 9.846-15.754 29.539-3.938 41.354L738.462 512 551.385 744.37c-9.847 11.815-7.877 31.507 3.938 41.353l45.292 37.415c13.785 9.847 29.539 7.877 41.354-3.938l230.4-287.508c7.877-15.754 7.877-29.538 0-39.384z"/></svg>