<?xml version="1.0" standalone="no"?><!DOCTYPE svg PUBLIC "-//W3C//DTD SVG 1.1//EN" "http://www.w3.org/Graphics/SVG/1.1/DTD/svg11.dtd"><svg t="1592386513525" class="icon" viewBox="0 0 1024 1024" version="1.1" xmlns="http://www.w3.org/2000/svg" p-id="3546" xmlns:xlink="http://www.w3.org/1999/xlink" width="200" height="200"><defs><style type="text/css"></style></defs><path d="M913.6 135.2H380.2c-26.7 0-44.4 17.8-44.4 44.4V224c0 26.7 17.8 44.4 44.4 44.4h533.3c26.7 0 44.4-17.8 44.4-44.4v-44.4c0.1-26.6-17.7-44.4-44.3-44.4zM158 135.2h-44.4c-22.2 0-44.4 22.2-44.4 44.4V224c0 22.2 22.2 44.4 44.4 44.4H158c22.2 0 44.4-22.2 44.4-44.4v-44.4c0.1-22.2-22.1-44.4-44.4-44.4zM158 446.3h-44.4c-22.2 0-44.4 22.2-44.4 44.4v44.4c0 22.2 22.2 44.4 44.4 44.4H158c22.2 0 44.4-22.2 44.4-44.4v-44.4c0.1-22.2-22.1-44.4-44.4-44.4zM913.6 446.3H380.2c-26.7 0-44.4 17.8-44.4 44.4v44.4c0 26.7 17.8 44.4 44.4 44.4h533.3c26.7 0 44.4-17.8 44.4-44.4v-44.4c0.1-26.6-17.7-44.4-44.3-44.4zM158 757.4h-44.4c-22.2 0-44.4 22.2-44.4 44.4v44.4c0 22.2 22.2 44.4 44.4 44.4H158c22.2 0 44.4-22.2 44.4-44.4v-44.4c0.1-22.2-22.1-44.4-44.4-44.4zM913.6 757.4H380.2c-26.7 0-44.4 17.8-44.4 44.4v44.4c0 26.7 17.8 44.4 44.4 44.4h533.3c26.7 0 44.4-17.8 44.4-44.4v-44.4c0.1-26.6-17.7-44.4-44.3-44.4z" p-id="3547"></path></svg>