<?xml version="1.0" standalone="no"?><!DOCTYPE svg PUBLIC "-//W3C//DTD SVG 1.1//EN" "http://www.w3.org/Graphics/SVG/1.1/DTD/svg11.dtd"><svg t="1592388534635" class="icon" viewBox="0 0 1024 1024" version="1.1" xmlns="http://www.w3.org/2000/svg" p-id="2783" xmlns:xlink="http://www.w3.org/1999/xlink" width="200" height="200"><defs><style type="text/css"></style></defs><path d="M781.69183326 208.63562012H242.36749291c-9.3092649 0-17.22930884 3.30743408-23.84417772 9.86792016-6.57531762 6.62475562-9.87780761 14.54479957-9.87780761 23.85406446v101.12640405h606.74853539V242.36254883c0-9.3092649-3.30743408-17.22930884-9.87780761-23.85406518-6.62475562-6.56048608-14.54479957-9.86792016-23.84417701-9.86791944h0.01977491z m33.70220971 573.04632568V410.87854004H444.59063721v404.50561547h337.08142114c9.29937744 0 17.22436547-3.30743408 23.844177-9.87780762 6.57531762-6.60992408 9.87780761-14.54479957 9.87780762-23.84417772v0.01977563z m-438.20782447 33.70220971v-404.50561548h-168.53576684v370.80340577c0 9.31420898 3.30249 17.26391602 9.87286353 23.82934546 6.61486816 6.61981225 14.53491211 9.89263916 23.84417772 9.89263917h134.81872559v-0.01977492zM242.34771729 141.21142578h539.32434106c27.89318824 0 51.74725342 9.87780761 71.50286865 29.62353539 19.74572778 19.75561523 29.61364722 43.58001733 29.61364722 71.48803711v539.33917189c0 27.89318824-9.86792016 51.73736596-29.61364722 71.4929812-19.75561523 19.75561523-43.60968041 29.63342286-71.50286865 29.63342285H242.34771729c-27.91296386 0-51.74725342-9.87780761-71.50286866-29.63342285C151.08923339 833.39953614 141.21142578 809.55041503 141.21142578 781.66217017V242.32794165C141.21142578 214.41497779 151.08923339 190.59057641 170.84484863 170.83496117 190.60046386 151.08923339 214.43475342 141.21142578 242.34771729 141.21142578z" p-id="2784"></path></svg>