<?xml version="1.0" standalone="no"?><!DOCTYPE svg PUBLIC "-//W3C//DTD SVG 1.1//EN" "http://www.w3.org/Graphics/SVG/1.1/DTD/svg11.dtd"><svg t="1597799591098" class="icon" viewBox="0 0 1024 1024" version="1.1" xmlns="http://www.w3.org/2000/svg" p-id="11722" xmlns:xlink="http://www.w3.org/1999/xlink" width="200" height="200"><defs><style type="text/css"></style></defs><path d="M188.20055 382.300318c-70.198151 0-127.308206 57.110054-127.308206 127.311818 0 70.198151 57.110054 127.311818 127.308206 127.311818s127.308206-57.113667 127.308206-127.311818C315.508756 439.410372 258.398702 382.300318 188.20055 382.300318zM188.20055 441.801849c37.389402 0 67.806675 30.417272 67.806675 67.806675 0 37.38579-30.417272 67.803062-67.806675 67.803062s-67.806675-30.417272-67.806675-67.803062C120.393876 472.222733 150.811148 441.801849 188.20055 441.801849z" p-id="11723"></path><path d="M840.01524 382.300318c-70.201764 0-127.311818 57.110054-127.311818 127.311818 0 70.198151 57.113667 127.311818 127.311818 127.311818s127.308206-57.113667 127.308206-127.311818C967.323446 439.410372 910.213392 382.300318 840.01524 382.300318zM840.01524 441.801849c37.389402 0 67.806675 30.417272 67.806675 67.806675 0 37.38579-30.417272 67.803062-67.806675 67.803062s-67.806675-30.417272-67.806675-67.803062S802.625838 441.801849 840.01524 441.801849z" p-id="11724"></path><path d="M515.46439 382.300318c-70.198151 0-127.308206 57.110054-127.308206 127.311818 0 70.198151 57.110054 127.311818 127.308206 127.311818s127.308206-57.113667 127.308206-127.311818C642.772596 439.410372 585.658929 382.300318 515.46439 382.300318zM515.46439 441.801849c37.389402 0 67.806675 30.417272 67.806675 67.806675 0 37.38579-30.417272 67.803062-67.806675 67.803062s-67.806675-30.417272-67.806675-67.803062C447.657715 472.222733 478.074988 441.801849 515.46439 441.801849z" p-id="11725"></path></svg>