<svg class="icon" viewBox="0 0 1024 1024" xmlns="http://www.w3.org/2000/svg" width="200" height="200"><path d="M936.003 250.68C908.57 92.426 759.26-13.143 602.593 14.69 446.136 42.526 313.923 164.397 341.56 322.451c5.965 34.197 22.462 87.48 41.948 125.85L99.215 858.445c-10.537 15.109-16.501 42.347-13.322 60.636l12.33 70.18c-11.73-67.594 3.179 24.453 12.323 24.054l93.64 1.392c18.094-3.18 40.755-18.488 50.698-33.997L367.41 804.762l.988-1.193 98.217 7.756 131.41-205.967c43.146 7.358 104.97 4.772 141.753-1.587 155.863-27.838 224.061-195.036 196.224-353.09zm-759.87 635.904-24.591 15.483 5.729-27.817L424.079 492.4l18.453 12.918-266.399 381.266zM797.43 331.597c-43.141 62.034-87.076 18.294-148.511-25.247-61.435-43.54-117.3-70.175-74.158-132.408 43.141-62.024 127.836-77.338 189.266-33.797 61.435 43.735 76.544 129.423 33.403 191.452z"/></svg>