<?xml version="1.0" standalone="no"?><!DOCTYPE svg PUBLIC "-//W3C//DTD SVG 1.1//EN" "http://www.w3.org/Graphics/SVG/1.1/DTD/svg11.dtd"><svg t="1592389650444" class="icon" viewBox="0 0 1024 1024" version="1.1" xmlns="http://www.w3.org/2000/svg" p-id="4328" xmlns:xlink="http://www.w3.org/1999/xlink" width="200" height="200"><defs><style type="text/css"></style></defs><path d="M936.00256 250.68032c-27.43296-158.25408-176.7424-263.82336-333.40928-235.99104-156.45696 27.83744-288.67072 149.7088-261.03296 307.7632 5.9648 34.19648 22.46144 87.48032 41.94816 125.8496l-284.29312 410.14272c-10.53696 15.10912-16.50176 42.34752-13.32224 60.63616l12.32896 70.17984c-11.72992-67.59424 3.17952 24.45312 12.32384 24.05376l93.63968 1.39264c18.09408-3.17952 40.7552-18.48832 50.69824-33.9968L367.4112 804.7616l0.98816-1.19296 98.21696 7.7568 131.40992-205.96736c43.14624 7.35744 104.97024 4.77184 141.75232-1.5872 155.86304-27.83744 224.06144-195.03616 196.224-353.09056z m-759.86944 635.904l-24.59136 15.48288 5.72928-27.81696 266.80832-381.8496 18.45248 12.91776-266.39872 381.26592zM797.42976 331.5968c-43.14112 62.03392-87.07584 18.29376-148.51072-25.24672-61.43488-43.54048-117.2992-70.17472-74.15808-132.40832 43.14112-62.02368 127.83616-77.3376 189.26592-33.79712 61.43488 43.73504 76.544 129.42336 33.40288 191.45216z" fill="" p-id="4329"></path></svg>