<?xml version="1.0" standalone="no"?><!DOCTYPE svg PUBLIC "-//W3C//DTD SVG 1.1//EN" "http://www.w3.org/Graphics/SVG/1.1/DTD/svg11.dtd"><svg t="1597799419112" class="icon" viewBox="0 0 1024 1024" version="1.1" xmlns="http://www.w3.org/2000/svg" p-id="9746" xmlns:xlink="http://www.w3.org/1999/xlink" width="200" height="200"><defs><style type="text/css"></style></defs><path d="M487 71.425a75 75 0 0 1 72.575 0l335.7 185.5a75 75 0 0 1 38.75 65.65V690.85a75 75 0 0 1-38.75 65.625l-335.7 185.55a75 75 0 0 1-72.55 0l-335.7-185.5a75 75 0 0 1-38.75-65.675V322.6a75 75 0 0 1 38.75-65.6L487 71.4v0.025zM859 322.6L523.275 137.1l-335.7 185.5v368.25l335.7 185.5 335.75-185.5V322.6z m-601.75 37.1A37.5 37.5 0 0 1 308.2 345l215.1 118.875L738.45 345a37.5 37.5 0 0 1 36.25 65.625l-213.9 118.25V764.55a37.5 37.5 0 0 1-75 0v-235.7l-213.9-118.2a37.5 37.5 0 0 1-14.65-51v0.05z" p-id="9747"></path></svg>