<?xml version="1.0" standalone="no"?><!DOCTYPE svg PUBLIC "-//W3C//DTD SVG 1.1//EN" "http://www.w3.org/Graphics/SVG/1.1/DTD/svg11.dtd"><svg t="1592385467403" class="icon" viewBox="0 0 1024 1024" version="1.1" xmlns="http://www.w3.org/2000/svg" p-id="2782" xmlns:xlink="http://www.w3.org/1999/xlink" width="200" height="200"><defs><style type="text/css"></style></defs><path d="M165.415385 827.076923c-11.815385 0-19.692308-7.876923-19.692308-19.692308V214.646154c0-11.815385 7.876923-19.692308 19.692308-19.692308h159.507692c7.876923 0 17.723077 3.938462 23.630769 9.846154L576.984615 492.307692c7.876923 9.846154 7.876923 25.6 0 37.415385L346.584615 817.230769c-5.907692 7.876923-15.753846 11.815385-25.6 11.815385L165.415385 827.076923z m706.953846-334.769231L641.969231 206.769231c-9.846154-11.815385-27.569231-15.753846-41.353846-3.938462l-45.292308 37.415385c-13.784615 9.846154-15.753846 29.538462-3.938462 41.353846L738.461538 512 551.384615 744.369231c-9.846154 11.815385-7.876923 31.507692 3.938462 41.353846l45.292308 37.415385c13.784615 9.846154 29.538462 7.876923 41.353846-3.938462L872.369231 531.692308c7.876923-15.753846 7.876923-29.538462 0-39.384616z" p-id="2783"></path></svg>