<svg class="icon" viewBox="0 0 1024 1024" xmlns="http://www.w3.org/2000/svg" width="200" height="200"><path d="M188.2 382.3c-70.198 0-127.308 57.11-127.308 127.312 0 70.198 57.11 127.312 127.309 127.312s127.308-57.114 127.308-127.312c0-70.202-57.11-127.312-127.308-127.312zm0 59.502c37.39 0 67.807 30.417 67.807 67.807 0 37.385-30.417 67.803-67.806 67.803s-67.807-30.418-67.807-67.803c0-37.386 30.417-67.807 67.807-67.807zM840.015 382.3c-70.202 0-127.312 57.11-127.312 127.312 0 70.198 57.114 127.312 127.312 127.312s127.308-57.114 127.308-127.312c0-70.202-57.11-127.312-127.308-127.312zm0 59.502c37.39 0 67.807 30.417 67.807 67.807 0 37.385-30.417 67.803-67.807 67.803s-67.806-30.418-67.806-67.803 30.417-67.807 67.806-67.807zM515.464 382.3c-70.198 0-127.308 57.11-127.308 127.312 0 70.198 57.11 127.312 127.308 127.312s127.309-57.114 127.309-127.312c0-70.202-57.114-127.312-127.309-127.312zm0 59.502c37.39 0 67.807 30.417 67.807 67.807 0 37.385-30.417 67.803-67.807 67.803s-67.806-30.418-67.806-67.803c0-37.386 30.417-67.807 67.806-67.807z"/></svg>