<svg xmlns="http://www.w3.org/2000/svg" width="200" height="200" class="icon" viewBox="0 0 1024 1024"><path d="M913.6 135.2H380.2c-26.7 0-44.4 17.8-44.4 44.4V224c0 26.7 17.8 44.4 44.4 44.4h533.3c26.7 0 44.4-17.8 44.4-44.4v-44.4c.1-26.6-17.7-44.4-44.3-44.4zm-755.6 0h-44.4c-22.2 0-44.4 22.2-44.4 44.4V224c0 22.2 22.2 44.4 44.4 44.4H158c22.2 0 44.4-22.2 44.4-44.4v-44.4c.1-22.2-22.1-44.4-44.4-44.4zm0 311.1h-44.4c-22.2 0-44.4 22.2-44.4 44.4v44.4c0 22.2 22.2 44.4 44.4 44.4H158c22.2 0 44.4-22.2 44.4-44.4v-44.4c.1-22.2-22.1-44.4-44.4-44.4zm755.6 0H380.2c-26.7 0-44.4 17.8-44.4 44.4v44.4c0 26.7 17.8 44.4 44.4 44.4h533.3c26.7 0 44.4-17.8 44.4-44.4v-44.4c.1-26.6-17.7-44.4-44.3-44.4zM158 757.4h-44.4c-22.2 0-44.4 22.2-44.4 44.4v44.4c0 22.2 22.2 44.4 44.4 44.4H158c22.2 0 44.4-22.2 44.4-44.4v-44.4c.1-22.2-22.1-44.4-44.4-44.4zm755.6 0H380.2c-26.7 0-44.4 17.8-44.4 44.4v44.4c0 26.7 17.8 44.4 44.4 44.4h533.3c26.7 0 44.4-17.8 44.4-44.4v-44.4c.1-26.6-17.7-44.4-44.3-44.4z"/></svg>