<svg class="icon" viewBox="0 0 1024 1024" xmlns="http://www.w3.org/2000/svg" width="200" height="200"><path d="M914.5 653.5c-5.5 0-11 1.1-16 3.3l-.2.1h-.2L510.2 822.2 122.2 657h-.2l-.2-.1c-5-2.1-10.3-3.3-16-3.3-23.1 0-41.8 19.3-41.8 43.1 0 18 10.7 33.3 25.8 39.8l403.9 172.1.4.1c10.2 4.4 21.8 4.4 32 0l.2-.1c.1 0 .1-.1.2-.1l403.9-172.1c15.1-6.5 25.8-21.8 25.8-39.8.1-23.8-18.6-43.1-41.7-43.1zm0-186.5c-7.9-.2-16 3.2-16 3.2L510.2 635.6 121.8 470.2s-10.3-3.2-16-3.2C82.7 467 64 486.2 64 510c0 17.9 10.7 33.3 25.8 39.7l403.9 172c.1 0 .1.1.2.1l.1.1c5 2.1 10.3 3.3 16 3.3 5.7 0 11.1-1.2 16-3.3l.2-.1c.1 0 .1 0 .2-.1l403.9-172c15.1-6.4 25.8-21.8 25.9-39.7.1-23.8-18.6-43-41.7-43zM89.8 363.2l403.9 172.1c.1 0 .1 0 .2.1l.1.1c5 2.1 10.3 3.2 16 3.2 5.5 0 10.9-1.1 16-3.2l.2-.1.2-.1 403.9-172c15.1-6.5 25.8-21.8 25.9-39.7 0-18-10.7-33.3-25.8-39.8L526.5 111.6c-.1 0-.1 0-.2-.1l-.2-.1c-10.2-4.4-21.8-4.4-32 0l-.1.1L89.8 283.7C74.7 290.1 64 305.5 64 323.5c0 17.9 10.7 33.2 25.8 39.7z"/></svg>