<svg class="icon" viewBox="0 0 1024 1024" xmlns="http://www.w3.org/2000/svg" width="200" height="200"><path d="M781.692 208.636H242.367c-9.309 0-17.229 3.307-23.844 9.868-6.575 6.624-9.877 14.544-9.877 23.854v101.126h606.748V242.363c0-9.31-3.307-17.23-9.878-23.855-6.625-6.56-14.545-9.867-23.844-9.867h.02zm33.702 573.046V410.879H444.591v404.505h337.081c9.3 0 17.224-3.307 23.844-9.878 6.576-6.61 9.878-14.544 9.878-23.844v.02zm-438.208 33.702V410.88H208.65v370.803c0 9.314 3.303 17.264 9.873 23.83 6.615 6.62 14.535 9.892 23.844 9.892h134.82v-.02zM242.348 141.211h539.324c27.893 0 51.747 9.878 71.503 29.624 19.746 19.756 29.614 43.58 29.614 71.488v539.34c0 27.892-9.868 51.737-29.614 71.492-19.756 19.756-43.61 29.634-71.503 29.634H242.348c-27.913 0-51.748-9.878-71.503-29.634-19.756-19.755-29.634-43.605-29.634-71.493V242.328c0-27.913 9.878-51.737 29.634-71.493 19.755-19.746 43.59-29.624 71.503-29.624z"/></svg>