<svg xmlns="http://www.w3.org/2000/svg" width="200.781" height="200" class="icon" viewBox="0 0 1028 1024"><path d="M989.867 234.667H499.2c-17.067 0-34.133-21.334-34.133-42.667 0-25.6 12.8-42.667 34.133-42.667h490.667c17.066 0 34.133 17.067 34.133 42.667 0 21.333-12.8 42.667-34.133 42.667zm-473.6 128h465.066c25.6 0 46.934 21.333 46.934 42.666 0 25.6-21.334 42.667-46.934 42.667H516.267c-25.6 0-46.934-17.067-46.934-42.667s21.334-42.666 46.934-42.666zm0 298.666c-25.6 0-46.934-21.333-46.934-42.666 0-25.6 21.334-42.667 46.934-42.667h465.066c25.6 0 46.934 17.067 46.934 42.667s-21.334 42.666-46.934 42.666H516.267zm4.266 128H972.8c29.867 0 51.2 17.067 51.2 42.667s-21.333 42.667-51.2 42.667H520.533c-29.866 0-51.2-17.067-51.2-42.667s21.334-42.667 51.2-42.667zm-192 25.6c-17.066 17.067-46.933 17.067-64 0L12.8 541.867c-17.067-17.067-17.067-51.2 0-68.267l251.733-273.067c17.067-17.066 46.934-17.066 64 0s17.067 51.2 0 68.267L106.667 507.733l221.866 238.934c17.067 21.333 17.067 51.2 0 68.266z"/></svg>