<svg class="icon" viewBox="0 0 1024 1024" xmlns="http://www.w3.org/2000/svg" width="200" height="200"><path d="M524.48 965.12a456 456 0 0 1-147.52-24.64 32 32 0 0 1-19.52-40.64A32 32 0 0 1 398.4 880a362.24 362.24 0 0 0 126.08 21.12 384 384 0 0 0 125.76-21.44 184.64 184.64 0 0 1-7.36-57.92 192 192 0 0 1 243.2-177.92 384 384 0 0 0-19.84-299.52 32 32 0 1 1 56.96-29.12 448 448 0 0 1 18.24 363.2 51.52 51.52 0 0 1-65.92 29.44 121.6 121.6 0 0 0-45.76-7.36 128 128 0 0 0-122.88 122.88 114.56 114.56 0 0 0 7.36 45.76 51.52 51.52 0 0 1-29.44 65.92 437.12 437.12 0 0 1-160.32 30.08zm137.28-89.6zM130.24 684.8a32 32 0 0 1-30.08-21.44 441.28 441.28 0 0 1-24.64-146.24 448 448 0 0 1 448-448 441.92 441.92 0 0 1 201.92 48.32 32 32 0 0 1-29.12 56.96 375.68 375.68 0 0 0-172.8-41.28A384 384 0 0 0 160 642.24a32 32 0 0 1-19.52 40.96 40.32 40.32 0 0 1-10.24 1.6z"/><path d="M399.04 756.8a56 56 0 0 1-40.64-17.6l-89.28-97.6a55.04 55.04 0 0 1 8-81.28L849.28 136a48.96 48.96 0 0 1 68.48 0 49.6 49.6 0 0 1-5.76 69.12L440.32 738.24a54.72 54.72 0 0 1-40.96 18.56zm6.72-61.12zm-82.56-89.92 75.84 82.56 358.08-404.48z"/><path d="M236.48 930.88h-7.68a169.92 169.92 0 0 1-117.44-54.72 91.84 91.84 0 0 1-30.08-71.04l2.24-16.32 66.56-34.56-4.48-41.28v-2.24a83.52 83.52 0 0 1 23.68-59.84c92.8-74.88 155.52-43.52 192-3.84A169.28 169.28 0 0 1 236.8 930.88zm-84.16-105.6A61.44 61.44 0 0 0 160 832a104.64 104.64 0 0 0 148.8 6.4 105.28 105.28 0 0 0 6.4-148.8c-19.84-21.44-46.08-35.52-101.76 8.32a56.32 56.32 0 0 0-2.56 12.8l4.8 42.24a55.04 55.04 0 0 1-29.44 54.72zm60.16-128zM196.48 454.08a39.68 39.68 0 1 0 79.36 0 39.68 39.68 0 1 0-79.36 0zM256 325.44a29.76 29.76 0 1 0 59.52 0 29.76 29.76 0 1 0-59.52 0z"/></svg>