<svg xmlns="http://www.w3.org/2000/svg" viewBox="0 -21 206 206" xml:space="preserve">
  <path d="M0,82.57C0,58.4,0,34.23,0,10.06C0,1.35,1.35,0,10.03,0C45.36,0,80.7-0.01,116.03,0.03c1.77,0,3.59,0.26,5.29,0.74
	c3.07,0.87,3.57,3.21,2.45,5.8c-4.37,10.1-8.83,20.15-13.31,30.2c-1.44,3.23-4.06,4.26-7.54,4.25c-18.5-0.09-37,0.1-55.5-0.14
	c-4.95-0.06-6.49,2.12-6.46,6.47c0.02,3,0.11,6.01-0.02,9c-0.3,6.8,0.34,9.29,9.51,9.62c5.36,0.19,10.73,0.04,16.09,0.04
	c7.57,0,15.15-0.04,22.72,0.01c5.13,0.03,6.6,2.12,4.59,6.89C90.43,81.09,86.27,89,83.4,97.35c-2.59,7.55-8.57,7.27-14.28,7.56
	c-7.48,0.38-15,0.17-22.5,0.06c-3.69-0.05-4.96,1.04-4.86,5.18c0.36,15.83,0.26,31.67,0.12,47.5c-0.04,4.2-2.26,6.53-6.94,6.42
	c-9-0.21-18-0.06-27-0.06c-6.05,0-7.91-1.8-7.92-7.94C-0.02,131.57,0,107.07,0,82.57z" fill="#42b883" />
  <path d="M132.98,94.13c-8.21,18.88-16.33,37.1-24.06,55.48c-6.02,14.31-5.81,14.4-21.31,14.4c-6.67,0-13.33,0.05-20-0.01
	c-5.91-0.05-7.71-2.44-5.46-7.61c6.86-15.8,13.86-31.55,20.82-47.31c9.41-21.32,18.81-42.63,28.24-63.94
	c5.59-12.62,11.14-25.25,16.94-37.77c0.82-1.78,2.95-4.09,4.47-4.09c1.63,0,4,2.11,4.78,3.86c13.4,29.78,26.56,59.66,39.87,89.49
	c6.48,14.53,13.16,28.97,19.72,43.46c2.57,5.68,5.11,11.38,7.61,17.1c1.61,3.68-0.13,6.75-4.12,6.77
	c-23.83,0.08-47.66,0.09-71.49-0.01c-4.03-0.02-5.46-2.47-3.98-6.17c2.26-5.63,4.77-11.16,6.95-16.82c1.74-4.54,4.92-6.06,9.6-5.98
	c9.65,0.16,9.89-0.55,5.89-9.13c-4.57-9.81-8.76-19.8-13.14-29.7C134.08,95.62,133.68,95.17,132.98,94.13z" fill="#42b883" />
</svg>
